<?xml version="1.0" encoding="utf-8"?>
<!-- Generator: Adobe Illustrator 16.0.0, SVG Export Plug-In . SVG Version: 6.00 Build 0)  -->
<!DOCTYPE svg PUBLIC "-//W3C//DTD SVG 1.1//EN" "http://www.w3.org/Graphics/SVG/1.1/DTD/svg11.dtd">
<svg version="1.1" xmlns="http://www.w3.org/2000/svg" xmlns:xlink="http://www.w3.org/1999/xlink" x="0px" y="0px" width="500px"
	 height="500px" viewBox="0 0 500 500" enable-background="new 0 0 500 500" xml:space="preserve">
<g id="BACKGROUND">
	<rect fill="#FFFFFF" width="500" height="500"/>
	<rect fill="#FFFFFF" width="500" height="500"/>
</g>
<g id="OBJECT">
	<g>
		<ellipse fill="#D7D8D6" cx="242.949" cy="386.873" rx="170.489" ry="10.226"/>
	</g>
	<g>
		<g>
			<g>
				<g>
					<g>
						<path fill="#4D5B65" d="M346.463,384.664H204.252c-7.813,0-14.146-6.333-14.146-14.146V144.183
							c0-7.813,6.333-14.146,14.146-14.146h142.211c7.813,0,14.146,6.333,14.146,14.146v226.335
							C360.608,378.331,354.275,384.664,346.463,384.664z"/>
					</g>
					<g>
						<path fill="#455259" d="M215.153,384.661h-10.9c-7.81,0-14.15-6.33-14.15-14.14v-226.34c0-7.81,6.34-14.14,14.15-14.14h10.9
							c-7.81,0-14.14,6.33-14.14,14.14v226.34C201.013,378.331,207.343,384.661,215.153,384.661z"/>
					</g>
				</g>
				<g>
					<g opacity="0.1">
						<g>
							<polygon fill="#FFFFFF" points="289.283,130.042 190.103,272.562 190.103,245.312 270.313,130.042 							"/>
						</g>
					</g>
					<g opacity="0.1">
						<g>
							<path fill="#FFFFFF" d="M360.613,144.182v10.86l-159.54,229.26c-6.28-1.44-10.97-7.061-10.97-13.78v-34.82l143.13-205.66
								h13.229C354.273,130.042,360.613,136.372,360.613,144.182z"/>
						</g>
					</g>
					<g opacity="0.1">
						<g>
							<polygon fill="#FFFFFF" points="360.613,197.591 360.613,246.941 264.773,384.661 230.423,384.661 							"/>
						</g>
					</g>
				</g>
			</g>
			<g>
				<g>
					<g>
						<path fill="#F5F7F4" d="M343.453,155.452v204.3c0,5.25-4.25,9.51-9.51,9.51h-117.17c-1.61,0-3.13-0.4-4.46-1.11
							c-3.01-1.59-5.06-4.76-5.06-8.399v-204.3c0-5.26,4.26-9.52,9.521-9.52h117.17
							C339.203,145.932,343.453,150.191,343.453,155.452z"/>
					</g>
					<g>
						<path fill="#DCDDDB" d="M222.723,368.151c1.33,0.71,2.85,1.11,4.46,1.11h-10.41c-1.61,0-3.13-0.4-4.46-1.11
							c-3.01-1.59-5.06-4.76-5.06-8.399v-204.3c0-5.26,4.26-9.52,9.521-9.52h10.41c-5.26,0-9.52,4.26-9.52,9.52v204.3
							C217.663,363.392,219.713,366.562,222.723,368.151z"/>
					</g>
				</g>
				<g>
					<g opacity="0.2">
						<g>
							<polygon fill="#FFFFFF" points="278.223,145.932 207.253,247.921 207.253,220.662 259.253,145.932 							"/>
						</g>
					</g>
					<g opacity="0.2">
						<g>
							<path fill="#FFFFFF" d="M343.453,155.452v24.25l-131.14,188.45c-3.01-1.59-5.06-4.76-5.06-8.399v-48.69l114.92-165.13h11.771
								C339.203,145.932,343.453,150.191,343.453,155.452z"/>
						</g>
					</g>
					<g opacity="0.2">
						<g>
							<polygon fill="#FFFFFF" points="343.453,222.251 343.453,271.602 275.493,369.262 241.143,369.262 							"/>
						</g>
					</g>
				</g>
			</g>
			<g>
				<g>
					<path fill="#C4C6C3" d="M307.03,130.035h-31.67c3.699,0,6.689-3,6.689-6.7c0-3.69-2.99-6.69-6.689-6.69c-3.7,0-6.7,3-6.7,6.69
						c0,3.7,3,6.7,6.7,6.7h-31.67l4.47-12.29c1.45-3.97,5.22-6.61,9.45-6.61H293.1c4.23,0,8.011,2.64,9.45,6.61L307.03,130.035z"/>
				</g>
				<g>
					<path fill="#C4C6C3" d="M321.993,130.042c0,1.7-0.47,3.3-1.3,4.66c-0.38,0.64-0.84,1.23-1.36,1.75
						c-1.649,1.65-3.91,2.66-6.42,2.66h-75.11c-3.3,0-6.2-1.77-7.78-4.41c-0.831-1.36-1.3-2.96-1.3-4.66H321.993z"/>
				</g>
				<g>
					<path fill="#ACADAC" d="M320.693,134.702c-0.38,0.64-0.84,1.23-1.36,1.75c-1.649,1.65-3.91,2.66-6.42,2.66h-75.11
						c-3.3,0-6.2-1.77-7.78-4.41H320.693z"/>
				</g>
				<g>
					<path fill="#ACADAC" d="M264.363,111.131c-4.23,0-8,2.64-9.45,6.61l-4.47,12.29h-6.75l4.47-12.29
						c1.45-3.97,5.22-6.61,9.45-6.61H264.363z"/>
				</g>
			</g>
			<g>
				<g>
					<g>
						<g>
							<path fill="#C4C6C3" d="M328.057,185.101H228.39c-3.704,0-6.707-3.003-6.707-6.707v-11.585c0-3.705,3.003-6.708,6.707-6.708
								h99.667c3.704,0,6.707,3.003,6.707,6.708v11.585C334.764,182.098,331.761,185.101,328.057,185.101z"/>
						</g>
						<g>
							<path fill="#C4C6C3" d="M328.057,219.101H228.39c-3.704,0-6.707-3.003-6.707-6.707v-11.585c0-3.705,3.003-6.708,6.707-6.708
								h99.667c3.704,0,6.707,3.003,6.707,6.708v11.585C334.764,216.098,331.761,219.101,328.057,219.101z"/>
						</g>
						<g>
							<path fill="#C4C6C3" d="M328.057,253.101H228.39c-3.704,0-6.707-3.003-6.707-6.707v-11.585c0-3.705,3.003-6.708,6.707-6.708
								h99.667c3.704,0,6.707,3.003,6.707,6.708v11.585C334.764,250.098,331.761,253.101,328.057,253.101z"/>
						</g>
						<g>
							<path fill="#C4C6C3" d="M328.057,287.101H228.39c-3.704,0-6.707-3.003-6.707-6.707v-11.586c0-3.704,3.003-6.707,6.707-6.707
								h99.667c3.704,0,6.707,3.003,6.707,6.707v11.586C334.764,284.098,331.761,287.101,328.057,287.101z"/>
						</g>
						<g>
							<path fill="#C4C6C3" d="M328.057,321.101H228.39c-3.704,0-6.707-3.003-6.707-6.707v-11.586c0-3.704,3.003-6.707,6.707-6.707
								h99.667c3.704,0,6.707,3.003,6.707,6.707v11.586C334.764,318.098,331.761,321.101,328.057,321.101z"/>
						</g>
						<g>
							<path fill="#C4C6C3" d="M328.057,355.101H228.39c-3.704,0-6.707-3.003-6.707-6.707v-11.586c0-3.704,3.003-6.707,6.707-6.707
								h99.667c3.704,0,6.707,3.003,6.707,6.707v11.586C334.764,352.098,331.761,355.101,328.057,355.101z"/>
						</g>
					</g>
					<g>
						<g>
							<g>
								<g>
									<path fill="#F5F7F4" d="M326.796,182.163h-11.75c-2.033,0-3.688-1.654-3.688-3.688v-11.75c0-2.033,1.654-3.688,3.688-3.688
										h11.75c2.033,0,3.688,1.654,3.688,3.688v11.75C330.483,180.509,328.829,182.163,326.796,182.163z M315.046,165.038
										c-0.931,0-1.688,0.757-1.688,1.688v11.75c0,0.931,0.757,1.688,1.688,1.688h11.75c0.931,0,1.688-0.757,1.688-1.688v-11.75
										c0-0.931-0.757-1.688-1.688-1.688H315.046z"/>
								</g>
							</g>
							<g>
								<g>
									<g>
										<path fill="#F5F7F4" d="M305.462,166.038h-78.499c-0.552,0-1-0.448-1-1s0.448-1,1-1h78.499c0.553,0,1,0.448,1,1
											S306.015,166.038,305.462,166.038z"/>
									</g>
								</g>
								<g>
									<g>
										<path fill="#F5F7F4" d="M305.462,173.601h-78.499c-0.552,0-1-0.448-1-1s0.448-1,1-1h78.499c0.553,0,1,0.448,1,1
											S306.015,173.601,305.462,173.601z"/>
									</g>
								</g>
								<g>
									<g>
										<path fill="#F5F7F4" d="M305.462,181.163h-39.25c-0.553,0-1-0.448-1-1s0.447-1,1-1h39.25c0.553,0,1,0.448,1,1
											S306.015,181.163,305.462,181.163z"/>
									</g>
								</g>
							</g>
						</g>
						<g>
							<g>
								<g>
									<path fill="#F5F7F4" d="M326.796,216.163h-11.75c-2.033,0-3.688-1.654-3.688-3.688v-11.75c0-2.033,1.654-3.688,3.688-3.688
										h11.75c2.033,0,3.688,1.654,3.688,3.688v11.75C330.483,214.509,328.829,216.163,326.796,216.163z M315.046,199.038
										c-0.931,0-1.688,0.757-1.688,1.688v11.75c0,0.931,0.757,1.688,1.688,1.688h11.75c0.931,0,1.688-0.757,1.688-1.688v-11.75
										c0-0.931-0.757-1.688-1.688-1.688H315.046z"/>
								</g>
							</g>
							<g>
								<g>
									<g>
										<path fill="#F5F7F4" d="M305.462,200.038h-78.499c-0.552,0-1-0.448-1-1s0.448-1,1-1h78.499c0.553,0,1,0.448,1,1
											S306.015,200.038,305.462,200.038z"/>
									</g>
								</g>
								<g>
									<g>
										<path fill="#F5F7F4" d="M305.462,207.601h-78.499c-0.552,0-1-0.448-1-1s0.448-1,1-1h78.499c0.553,0,1,0.448,1,1
											S306.015,207.601,305.462,207.601z"/>
									</g>
								</g>
								<g>
									<g>
										<path fill="#F5F7F4" d="M305.462,215.163h-39.25c-0.553,0-1-0.448-1-1s0.447-1,1-1h39.25c0.553,0,1,0.448,1,1
											S306.015,215.163,305.462,215.163z"/>
									</g>
								</g>
							</g>
						</g>
						<g>
							<g>
								<g>
									<path fill="#F5F7F4" d="M326.796,250.163h-11.75c-2.033,0-3.688-1.654-3.688-3.688v-11.75c0-2.033,1.654-3.688,3.688-3.688
										h11.75c2.033,0,3.688,1.654,3.688,3.688v11.75C330.483,248.509,328.829,250.163,326.796,250.163z M315.046,233.038
										c-0.931,0-1.688,0.757-1.688,1.688v11.75c0,0.931,0.757,1.688,1.688,1.688h11.75c0.931,0,1.688-0.757,1.688-1.688v-11.75
										c0-0.931-0.757-1.688-1.688-1.688H315.046z"/>
								</g>
							</g>
							<g>
								<g>
									<g>
										<path fill="#F5F7F4" d="M305.462,234.038h-78.499c-0.552,0-1-0.447-1-1s0.448-1,1-1h78.499c0.553,0,1,0.447,1,1
											S306.015,234.038,305.462,234.038z"/>
									</g>
								</g>
								<g>
									<g>
										<path fill="#F5F7F4" d="M305.462,241.601h-78.499c-0.552,0-1-0.447-1-1s0.448-1,1-1h78.499c0.553,0,1,0.447,1,1
											S306.015,241.601,305.462,241.601z"/>
									</g>
								</g>
								<g>
									<g>
										<path fill="#F5F7F4" d="M305.462,249.163h-39.25c-0.553,0-1-0.447-1-1s0.447-1,1-1h39.25c0.553,0,1,0.447,1,1
											S306.015,249.163,305.462,249.163z"/>
									</g>
								</g>
							</g>
						</g>
						<g>
							<g>
								<g>
									<path fill="#F5F7F4" d="M326.796,284.163h-11.75c-2.033,0-3.688-1.654-3.688-3.688v-11.75c0-2.033,1.654-3.688,3.688-3.688
										h11.75c2.033,0,3.688,1.654,3.688,3.688v11.75C330.483,282.509,328.829,284.163,326.796,284.163z M315.046,267.038
										c-0.931,0-1.688,0.757-1.688,1.688v11.75c0,0.931,0.757,1.688,1.688,1.688h11.75c0.931,0,1.688-0.757,1.688-1.688v-11.75
										c0-0.931-0.757-1.688-1.688-1.688H315.046z"/>
								</g>
							</g>
							<g>
								<g>
									<g>
										<path fill="#F5F7F4" d="M305.462,268.038h-78.499c-0.552,0-1-0.447-1-1s0.448-1,1-1h78.499c0.553,0,1,0.447,1,1
											S306.015,268.038,305.462,268.038z"/>
									</g>
								</g>
								<g>
									<g>
										<path fill="#F5F7F4" d="M305.462,275.601h-78.499c-0.552,0-1-0.447-1-1s0.448-1,1-1h78.499c0.553,0,1,0.447,1,1
											S306.015,275.601,305.462,275.601z"/>
									</g>
								</g>
								<g>
									<g>
										<path fill="#F5F7F4" d="M305.462,283.163h-39.25c-0.553,0-1-0.447-1-1s0.447-1,1-1h39.25c0.553,0,1,0.447,1,1
											S306.015,283.163,305.462,283.163z"/>
									</g>
								</g>
							</g>
						</g>
						<g>
							<g>
								<g>
									<path fill="#F5F7F4" d="M326.796,318.163h-11.75c-2.033,0-3.688-1.654-3.688-3.688v-11.75c0-2.033,1.654-3.688,3.688-3.688
										h11.75c2.033,0,3.688,1.654,3.688,3.688v11.75C330.483,316.509,328.829,318.163,326.796,318.163z M315.046,301.038
										c-0.931,0-1.688,0.757-1.688,1.688v11.75c0,0.931,0.757,1.688,1.688,1.688h11.75c0.931,0,1.688-0.757,1.688-1.688v-11.75
										c0-0.931-0.757-1.688-1.688-1.688H315.046z"/>
								</g>
							</g>
							<g>
								<g>
									<g>
										<path fill="#F5F7F4" d="M305.462,302.038h-78.499c-0.552,0-1-0.447-1-1s0.448-1,1-1h78.499c0.553,0,1,0.447,1,1
											S306.015,302.038,305.462,302.038z"/>
									</g>
								</g>
								<g>
									<g>
										<path fill="#F5F7F4" d="M305.462,309.601h-78.499c-0.552,0-1-0.447-1-1s0.448-1,1-1h78.499c0.553,0,1,0.447,1,1
											S306.015,309.601,305.462,309.601z"/>
									</g>
								</g>
								<g>
									<g>
										<path fill="#F5F7F4" d="M305.462,317.163h-39.25c-0.553,0-1-0.447-1-1s0.447-1,1-1h39.25c0.553,0,1,0.447,1,1
											S306.015,317.163,305.462,317.163z"/>
									</g>
								</g>
							</g>
						</g>
						<g>
							<g>
								<g>
									<path fill="#F5F7F4" d="M326.796,352.163h-11.75c-2.033,0-3.688-1.654-3.688-3.688v-11.75c0-2.033,1.654-3.688,3.688-3.688
										h11.75c2.033,0,3.688,1.654,3.688,3.688v11.75C330.483,350.509,328.829,352.163,326.796,352.163z M315.046,335.038
										c-0.931,0-1.688,0.757-1.688,1.688v11.75c0,0.931,0.757,1.688,1.688,1.688h11.75c0.931,0,1.688-0.757,1.688-1.688v-11.75
										c0-0.931-0.757-1.688-1.688-1.688H315.046z"/>
								</g>
							</g>
							<g>
								<g>
									<g>
										<path fill="#F5F7F4" d="M305.462,336.038h-78.499c-0.552,0-1-0.447-1-1s0.448-1,1-1h78.499c0.553,0,1,0.447,1,1
											S306.015,336.038,305.462,336.038z"/>
									</g>
								</g>
								<g>
									<g>
										<path fill="#F5F7F4" d="M305.462,343.601h-78.499c-0.552,0-1-0.447-1-1s0.448-1,1-1h78.499c0.553,0,1,0.447,1,1
											S306.015,343.601,305.462,343.601z"/>
									</g>
								</g>
								<g>
									<g>
										<path fill="#F5F7F4" d="M305.462,351.163h-39.25c-0.553,0-1-0.447-1-1s0.447-1,1-1h39.25c0.553,0,1,0.447,1,1
											S306.015,351.163,305.462,351.163z"/>
									</g>
								</g>
							</g>
						</g>
					</g>
				</g>
				<g>
					<g>
						<g>
							<path fill="#4D5B65" d="M320.921,176.038c-0.357,0-0.716-0.127-1-0.382l-4.247-3.801c-0.617-0.552-0.67-1.5-0.118-2.118
								c0.553-0.617,1.5-0.67,2.118-0.117l3.251,2.909l9.128-8.111c0.619-0.551,1.568-0.494,2.117,0.125
								c0.551,0.62,0.494,1.567-0.125,2.118l-10.128,9C321.633,175.912,321.277,176.038,320.921,176.038z"/>
						</g>
					</g>
					<g>
						<g>
							<path fill="#4D5B65" d="M320.921,210.068c-0.357,0-0.716-0.127-1-0.383l-4.247-3.8c-0.617-0.552-0.67-1.5-0.118-2.118
								c0.553-0.617,1.5-0.67,2.118-0.117l3.251,2.909l9.128-8.111c0.619-0.551,1.568-0.494,2.117,0.125
								c0.551,0.62,0.494,1.567-0.125,2.118l-10.128,9C321.633,209.942,321.277,210.068,320.921,210.068z"/>
						</g>
					</g>
					<g>
						<g>
							<path fill="#4D5B65" d="M320.921,277.737c-0.357,0-0.716-0.128-1-0.383l-4.247-3.801c-0.617-0.552-0.67-1.5-0.118-2.118
								c0.553-0.616,1.5-0.67,2.118-0.117l3.251,2.909l9.128-8.111c0.619-0.552,1.568-0.494,2.117,0.124
								c0.551,0.62,0.494,1.567-0.125,2.118l-10.128,9C321.633,277.61,321.277,277.737,320.921,277.737z"/>
						</g>
					</g>
				</g>
			</g>
		</g>
		<g>
			<g>
				<g>
					<path fill="#7BE0E0" d="M370.148,360.046c0,0,3.683-72.49,35.203-77.711c6.858-1.136,12.861,4.98,10.767,11.609
						c-1.571,4.977-6.559,9.607-19.915,9.047c0,0,4.288,13.645-10.721,13.84c0,0,9.551,8.771-9.551,14.229
						c0,0-3.444,19.369-4.094,28.985H370.148z"/>
				</g>
				<g>
					<path fill="#53C9C6" d="M416.121,293.946c-1.577,4.972-6.561,9.602-19.92,9.041c0,0,4.287,13.65-10.723,13.848
						c0,0,9.56,8.771-9.551,14.222c0,0-3.436,19.37-4.09,28.992h-1.691c0,0,0.788-15.55,4.774-32.771
						c15.208-5.461,6.664-13.298,6.664-13.298c15.011-0.197,10.724-13.848,10.724-13.848c13.359,0.561,18.342-4.069,19.92-9.041
						c0.966-3.063,0.208-6.011-1.578-8.19C414.886,284.593,417.637,289.13,416.121,293.946z"/>
				</g>
			</g>
			<g>
				<g>
					<path fill="#7BE0E0" d="M371.838,360.046c0,0,4.785-35.428,33.486-29.285c4.702,1.006,6.924,6.559,3.451,9.885
						c-2.428,2.326-6.971,3.457-15.432,0.355c0,0-2.923,6.758-13.579,1.689c0,0-5.38,7.725-6.627,17.355H371.838z"/>
				</g>
				<g>
					<path fill="#53C9C6" d="M408.772,340.648c-2.419,2.325-6.966,3.456-15.426,0.353c0,0-2.928,6.758-13.578,1.692
						c0,0-5.388,7.723-6.633,17.355h-1.298c0,0,0.177-1.35,0.686-3.467h0.093c0.031-0.28,0.073-0.561,0.114-0.83
						c1.069-4.184,3.26-10.703,7.423-16.121c9.913,4.287,12.674-2.087,12.674-2.087c8.46,3.094,13.007,1.973,15.426-0.363
						c0.903-0.861,1.433-1.879,1.609-2.927C410.869,336.309,410.682,338.811,408.772,340.648z"/>
				</g>
			</g>
			<g>
				<g>
					<path fill="#7BE0E0" d="M370.148,360.046c0,0,7.906-65.53-22.615-75.25c-4.589-1.461-9.422,1.781-9.633,6.592
						c-0.242,5.493,2.539,12.487,16.199,16.282c0,0-9.356,10.721,10.331,11.89c0,0-6.603,7.874,4.815,12.545
						c0,0,0.838,14.687-0.917,27.941H370.148z"/>
				</g>
				<g>
					<path fill="#53C9C6" d="M370.146,360.049h-1.817c1.755-13.256,0.914-27.944,0.914-27.944
						c-11.419-4.671-4.816-12.55-4.816-12.55c-19.682-1.162-10.329-11.886-10.329-11.886c-13.66-3.789-16.442-10.785-16.193-16.276
						c0.155-3.551,2.813-6.229,6.031-6.82c-1.318,1.235-2.19,2.948-2.273,4.931c-0.239,5.491,2.543,12.488,16.204,16.287
						c0,0-9.363,10.724,10.328,11.886c0,0-5.563,6.644,2.367,11.346C371.911,345.454,370.146,360.049,370.146,360.049z"/>
				</g>
			</g>
			<g>
				<g>
					<path fill="#7BE0E0" d="M368.329,360.046c0,0-1.072-34.083-29.362-40.172c-5.78-1.244-9.625,6.028-5.115,9.854
						c2.495,2.117,7.131,3.824,15.375,4.257c0,0-1.43,8.529,13.255,7.968c0,0,3.961,6.787,4.288,18.094H368.329z"/>
				</g>
				<g>
					<path fill="#53C9C6" d="M368.329,360.049h-1.557c-0.332-11.314-4.287-18.093-4.287-18.093
						c-14.688,0.561-13.256-7.973-13.256-7.973c-8.242-0.436-12.883-2.138-15.374-4.256c-3.249-2.751-2.169-7.276,0.841-9.146
						c-0.976,2.098-0.736,4.724,1.423,6.551c2.501,2.117,7.131,3.819,15.373,4.256c0,0-1.308,7.827,11.491,7.993
						C368.008,349.689,368.329,360.049,368.329,360.049z"/>
				</g>
			</g>
			<g>
				<g>
					<path fill="#FFC115" d="M371.448,384.664h-2.6c-6.53,0-11.825-5.294-11.825-11.825v-12.793h26.25v12.793
						C383.273,379.37,377.979,384.664,371.448,384.664z"/>
				</g>
				<g>
					<path fill="#E8A90C" d="M383.277,360.049v12.789c0,6.529-5.294,11.823-11.834,11.823h-2.595c-0.706,0-1.401-0.063-2.076-0.187
						c5.543-0.976,9.758-5.813,9.758-11.637v-12.789H383.277z"/>
				</g>
			</g>
		</g>
	</g>
	<g>
		<g>
			<g>
				<g>
					<path fill="#FFC115" d="M436.46,366.984h-5c-0.69,0-1.25-0.56-1.25-1.25s0.56-1.25,1.25-1.25h5c0.69,0,1.25,0.56,1.25,1.25
						S437.15,366.984,436.46,366.984z M423.46,366.984h-5c-0.69,0-1.25-0.56-1.25-1.25s0.56-1.25,1.25-1.25h5
						c0.69,0,1.25,0.56,1.25,1.25S424.15,366.984,423.46,366.984z M410.46,366.984h-5c-0.69,0-1.25-0.56-1.25-1.25
						s0.56-1.25,1.25-1.25h5c0.69,0,1.25,0.56,1.25,1.25S411.15,366.984,410.46,366.984z M397.46,366.984h-5
						c-0.69,0-1.25-0.56-1.25-1.25s0.56-1.25,1.25-1.25h5c0.69,0,1.25,0.56,1.25,1.25S398.15,366.984,397.46,366.984z
						 M441.35,363.874c-0.69,0-1.25-0.56-1.25-1.25v-5c0-0.69,0.56-1.25,1.25-1.25s1.25,0.56,1.25,1.25v5
						C442.6,363.314,442.04,363.874,441.35,363.874z M441.35,350.874c-0.69,0-1.25-0.56-1.25-1.25v-5c0-0.69,0.56-1.25,1.25-1.25
						s1.25,0.56,1.25,1.25v5C442.6,350.314,442.04,350.874,441.35,350.874z M441.35,337.874c-0.69,0-1.25-0.56-1.25-1.25v-5
						c0-0.69,0.56-1.25,1.25-1.25s1.25,0.56,1.25,1.25v5C442.6,337.314,442.04,337.874,441.35,337.874z M441.35,324.874
						c-0.69,0-1.25-0.56-1.25-1.25v-5c0-0.69,0.56-1.25,1.25-1.25s1.25,0.56,1.25,1.25v5
						C442.6,324.314,442.04,324.874,441.35,324.874z M441.35,311.874c-0.69,0-1.25-0.56-1.25-1.25v-5c0-0.69,0.56-1.25,1.25-1.25
						s1.25,0.56,1.25,1.25v5C442.6,311.314,442.04,311.874,441.35,311.874z M441.35,298.874c-0.69,0-1.25-0.56-1.25-1.25v-5
						c0-0.69,0.56-1.25,1.25-1.25s1.25,0.56,1.25,1.25v5C442.6,298.314,442.04,298.874,441.35,298.874z M441.35,285.874
						c-0.69,0-1.25-0.56-1.25-1.25v-5c0-0.69,0.56-1.25,1.25-1.25s1.25,0.56,1.25,1.25v5
						C442.6,285.314,442.04,285.874,441.35,285.874z M441.35,272.874c-0.69,0-1.25-0.56-1.25-1.25v-5c0-0.69,0.56-1.25,1.25-1.25
						s1.25,0.56,1.25,1.25v5C442.6,272.314,442.04,272.874,441.35,272.874z M441.35,259.874c-0.69,0-1.25-0.56-1.25-1.25v-5
						c0-0.69,0.56-1.25,1.25-1.25s1.25,0.56,1.25,1.25v5C442.6,259.314,442.04,259.874,441.35,259.874z M441.35,246.874
						c-0.69,0-1.25-0.56-1.25-1.25v-5c0-0.69,0.56-1.25,1.25-1.25s1.25,0.56,1.25,1.25v5
						C442.6,246.314,442.04,246.874,441.35,246.874z M441.35,233.874c-0.69,0-1.25-0.56-1.25-1.25v-5c0-0.69,0.56-1.25,1.25-1.25
						s1.25,0.56,1.25,1.25v5C442.6,233.314,442.04,233.874,441.35,233.874z M441.35,220.874c-0.69,0-1.25-0.56-1.25-1.25v-5
						c0-0.69,0.56-1.25,1.25-1.25s1.25,0.56,1.25,1.25v5C442.6,220.314,442.04,220.874,441.35,220.874z M440.373,208.851h-5
						c-0.69,0-1.25-0.56-1.25-1.25s0.56-1.25,1.25-1.25h5c0.69,0,1.25,0.56,1.25,1.25S441.063,208.851,440.373,208.851z
						 M427.373,208.851h-5c-0.69,0-1.25-0.56-1.25-1.25s0.56-1.25,1.25-1.25h5c0.69,0,1.25,0.56,1.25,1.25
						S428.063,208.851,427.373,208.851z M414.373,208.851h-5c-0.69,0-1.25-0.56-1.25-1.25s0.56-1.25,1.25-1.25h5
						c0.69,0,1.25,0.56,1.25,1.25S415.063,208.851,414.373,208.851z M401.373,208.851h-5c-0.69,0-1.25-0.56-1.25-1.25
						s0.56-1.25,1.25-1.25h5c0.69,0,1.25,0.56,1.25,1.25S402.063,208.851,401.373,208.851z M388.373,208.851h-5
						c-0.69,0-1.25-0.56-1.25-1.25s0.56-1.25,1.25-1.25h5c0.69,0,1.25,0.56,1.25,1.25S389.063,208.851,388.373,208.851z
						 M375.373,208.851h-5c-0.69,0-1.25-0.56-1.25-1.25s0.56-1.25,1.25-1.25h5c0.69,0,1.25,0.56,1.25,1.25
						S376.063,208.851,375.373,208.851z"/>
				</g>
				<g>
					<circle fill="#FFC115" cx="441.35" cy="207.601" r="5.167"/>
				</g>
				<g>
					<circle fill="#FFC115" cx="441.35" cy="366.351" r="5.167"/>
				</g>
			</g>
			<g>
				<g>
					<path fill="#7BE0E0" d="M413.438,275.851c-0.69,0-1.25-0.56-1.25-1.25v-2.304c0-0.69,0.56-1.25,1.25-1.25s1.25,0.56,1.25,1.25
						v2.304C414.688,275.291,414.129,275.851,413.438,275.851z M413.438,265.547c-0.69,0-1.25-0.56-1.25-1.25v-5
						c0-0.69,0.56-1.25,1.25-1.25s1.25,0.56,1.25,1.25v5C414.688,264.987,414.129,265.547,413.438,265.547z M413.438,252.547
						c-0.69,0-1.25-0.56-1.25-1.25v-5c0-0.69,0.56-1.25,1.25-1.25s1.25,0.56,1.25,1.25v5
						C414.688,251.987,414.129,252.547,413.438,252.547z M413.438,239.547c-0.69,0-1.25-0.56-1.25-1.25v-5
						c0-0.69,0.56-1.25,1.25-1.25s1.25,0.56,1.25,1.25v5C414.688,238.987,414.129,239.547,413.438,239.547z M413.438,226.547
						c-0.69,0-1.25-0.56-1.25-1.25v-5c0-0.69,0.56-1.25,1.25-1.25s1.25,0.56,1.25,1.25v5
						C414.688,225.987,414.129,226.547,413.438,226.547z M413.438,213.547c-0.69,0-1.25-0.56-1.25-1.25v-5
						c0-0.69,0.56-1.25,1.25-1.25s1.25,0.56,1.25,1.25v5C414.688,212.987,414.129,213.547,413.438,213.547z M413.438,200.547
						c-0.69,0-1.25-0.56-1.25-1.25v-5c0-0.69,0.56-1.25,1.25-1.25s1.25,0.56,1.25,1.25v5
						C414.688,199.987,414.129,200.547,413.438,200.547z M413.438,187.547c-0.69,0-1.25-0.56-1.25-1.25v-5
						c0-0.69,0.56-1.25,1.25-1.25s1.25,0.56,1.25,1.25v5C414.688,186.987,414.129,187.547,413.438,187.547z M370.146,174.851
						c-0.677,0-1.233-0.541-1.249-1.221c-0.016-0.69,0.531-1.263,1.222-1.278l4.999-0.115c0.702-0.039,1.263,0.531,1.278,1.221
						s-0.531,1.263-1.222,1.278l-4.999,0.115C370.165,174.851,370.155,174.851,370.146,174.851z M383.142,174.55
						c-0.677,0-1.233-0.541-1.249-1.221c-0.016-0.69,0.531-1.263,1.221-1.278l5-0.115c0.682-0.013,1.263,0.531,1.278,1.221
						s-0.531,1.263-1.221,1.278l-5,0.115C383.161,174.55,383.151,174.55,383.142,174.55z M413.438,174.547
						c-0.481,0-0.898-0.272-1.107-0.67l-3.166,0.073c-0.667,0.032-1.264-0.53-1.279-1.221c-0.016-0.69,0.531-1.263,1.221-1.278
						l4.303-0.1c0.34-0.015,0.662,0.12,0.903,0.355c0.24,0.235,0.376,0.558,0.376,0.894v0.696
						C414.688,173.987,414.129,174.547,413.438,174.547z M396.139,174.25c-0.677,0-1.233-0.541-1.249-1.221
						c-0.016-0.69,0.531-1.263,1.222-1.278l4.998-0.115c0.011,0,0.021,0,0.03,0c0.677,0,1.233,0.541,1.249,1.221
						c0.016,0.69-0.531,1.263-1.222,1.278l-4.998,0.115C396.158,174.25,396.148,174.25,396.139,174.25z"/>
				</g>
				<g>
					<circle fill="#7BE0E0" cx="412.517" cy="172.601" r="5.167"/>
				</g>
			</g>
			<g>
				<g>
					<path fill="#FFC115" d="M146.124,188.25c-0.69,0-1.25-0.56-1.25-1.25v-5c0-0.69,0.56-1.25,1.25-1.25s1.25,0.56,1.25,1.25v5
						C147.374,187.69,146.814,188.25,146.124,188.25z M146.124,175.25c-0.69,0-1.25-0.56-1.25-1.25v-5c0-0.69,0.56-1.25,1.25-1.25
						s1.25,0.56,1.25,1.25v5C147.374,174.69,146.814,175.25,146.124,175.25z M146.124,162.25c-0.69,0-1.25-0.56-1.25-1.25v-5
						c0-0.69,0.56-1.25,1.25-1.25s1.25,0.56,1.25,1.25v5C147.374,161.69,146.814,162.25,146.124,162.25z M146.124,149.25
						c-0.69,0-1.25-0.56-1.25-1.25v-5c0-0.69,0.56-1.25,1.25-1.25s1.25,0.56,1.25,1.25v5
						C147.374,148.69,146.814,149.25,146.124,149.25z M146.124,136.25c-0.69,0-1.25-0.56-1.25-1.25v-5c0-0.69,0.56-1.25,1.25-1.25
						s1.25,0.56,1.25,1.25v5C147.374,135.69,146.814,136.25,146.124,136.25z M146.124,123.25c-0.69,0-1.25-0.56-1.25-1.25v-5
						c0-0.69,0.56-1.25,1.25-1.25s1.25,0.56,1.25,1.25v5C147.374,122.69,146.814,123.25,146.124,123.25z M231.259,112.385h-5
						c-0.69,0-1.25-0.56-1.25-1.25s0.56-1.25,1.25-1.25h5c0.69,0,1.25,0.56,1.25,1.25S231.949,112.385,231.259,112.385z
						 M218.259,112.385h-5c-0.69,0-1.25-0.56-1.25-1.25s0.56-1.25,1.25-1.25h5c0.69,0,1.25,0.56,1.25,1.25
						S218.949,112.385,218.259,112.385z M205.259,112.385h-5c-0.69,0-1.25-0.56-1.25-1.25s0.56-1.25,1.25-1.25h5
						c0.69,0,1.25,0.56,1.25,1.25S205.949,112.385,205.259,112.385z M192.259,112.385h-5c-0.69,0-1.25-0.56-1.25-1.25
						s0.56-1.25,1.25-1.25h5c0.69,0,1.25,0.56,1.25,1.25S192.949,112.385,192.259,112.385z M179.259,112.385h-5
						c-0.69,0-1.25-0.56-1.25-1.25s0.56-1.25,1.25-1.25h5c0.69,0,1.25,0.56,1.25,1.25S179.949,112.385,179.259,112.385z
						 M166.259,112.385h-5c-0.69,0-1.25-0.56-1.25-1.25s0.56-1.25,1.25-1.25h5c0.69,0,1.25,0.56,1.25,1.25
						S166.949,112.385,166.259,112.385z M153.259,112.385h-5c-0.69,0-1.25-0.56-1.25-1.25s0.56-1.25,1.25-1.25h5
						c0.69,0,1.25,0.56,1.25,1.25S153.949,112.385,153.259,112.385z"/>
				</g>
				<g>
					<circle fill="#FFC115" cx="146.124" cy="111.135" r="5.167"/>
				</g>
			</g>
			<g>
				<g>
					<g>
						<path fill="#7BE0E0" d="M177.325,147.182h-2.5c-0.69,0-1.25-0.56-1.25-1.25s0.56-1.25,1.25-1.25h2.5
							c0.69,0,1.25,0.56,1.25,1.25S178.016,147.182,177.325,147.182z"/>
					</g>
					<g>
						<path fill="#7BE0E0" d="M167.357,147.182h-4.667c-0.69,0-1.25-0.56-1.25-1.25s0.56-1.25,1.25-1.25h4.667
							c0.69,0,1.25,0.56,1.25,1.25S168.048,147.182,167.357,147.182z M155.223,147.182h-4.667c-0.69,0-1.25-0.56-1.25-1.25
							s0.56-1.25,1.25-1.25h4.667c0.69,0,1.25,0.56,1.25,1.25S155.913,147.182,155.223,147.182z M143.088,147.182h-4.667
							c-0.69,0-1.25-0.56-1.25-1.25s0.56-1.25,1.25-1.25h4.667c0.69,0,1.25,0.56,1.25,1.25S143.778,147.182,143.088,147.182z
							 M130.953,147.182h-4.667c-0.69,0-1.25-0.56-1.25-1.25s0.56-1.25,1.25-1.25h4.667c0.69,0,1.25,0.56,1.25,1.25
							S131.643,147.182,130.953,147.182z M118.818,147.182h-4.667c-0.69,0-1.25-0.56-1.25-1.25s0.56-1.25,1.25-1.25h4.667
							c0.69,0,1.25,0.56,1.25,1.25S119.508,147.182,118.818,147.182z"/>
					</g>
					<g>
						<path fill="#7BE0E0" d="M104.183,149.682c-0.69,0-1.25-0.56-1.25-1.25v-2.5c0-0.69,0.56-1.25,1.25-1.25h2.5
							c0.69,0,1.25,0.56,1.25,1.25s-0.56,1.25-1.25,1.25h-1.25v1.25C105.433,149.122,104.874,149.682,104.183,149.682z"/>
					</g>
					<g>
						<path fill="#7BE0E0" d="M104.183,200.933c-0.69,0-1.25-0.56-1.25-1.25v-4.928c0-0.69,0.56-1.25,1.25-1.25s1.25,0.56,1.25,1.25
							v4.928C105.433,200.374,104.874,200.933,104.183,200.933z M104.183,188.121c-0.69,0-1.25-0.56-1.25-1.25v-4.928
							c0-0.69,0.56-1.25,1.25-1.25s1.25,0.56,1.25,1.25v4.928C105.433,187.561,104.874,188.121,104.183,188.121z M104.183,175.308
							c-0.69,0-1.25-0.56-1.25-1.25v-4.928c0-0.69,0.56-1.25,1.25-1.25s1.25,0.56,1.25,1.25v4.928
							C105.433,174.748,104.874,175.308,104.183,175.308z M104.183,162.495c-0.69,0-1.25-0.56-1.25-1.25v-4.928
							c0-0.69,0.56-1.25,1.25-1.25s1.25,0.56,1.25,1.25v4.928C105.433,161.935,104.874,162.495,104.183,162.495z"/>
					</g>
					<g>
						<path fill="#7BE0E0" d="M104.183,211.318c-0.69,0-1.25-0.56-1.25-1.25v-2.5c0-0.69,0.56-1.25,1.25-1.25s1.25,0.56,1.25,1.25
							v2.5C105.433,210.759,104.874,211.318,104.183,211.318z"/>
					</g>
				</g>
				<g>
					<circle fill="#7BE0E0" cx="104.183" cy="147.302" r="5.167"/>
				</g>
			</g>
		</g>
		<g>
			<g>
				<path fill="#C2C4C1" d="M174.821,163.521h-2.244v-2.245c0-0.657-0.533-1.19-1.19-1.19s-1.19,0.533-1.19,1.19v2.245h-2.244
					c-0.658,0-1.19,0.533-1.19,1.19c0,0.657,0.533,1.19,1.19,1.19h2.244v2.245c0,0.657,0.533,1.19,1.19,1.19s1.19-0.533,1.19-1.19
					v-2.245h2.244c0.658,0,1.19-0.533,1.19-1.19C176.011,164.054,175.479,163.521,174.821,163.521z"/>
			</g>
			<g>
				<path fill="#C2C4C1" d="M107.618,109.945h-2.244V107.7c0-0.658-0.533-1.19-1.19-1.19s-1.19,0.533-1.19,1.19v2.245h-2.244
					c-0.658,0-1.19,0.533-1.19,1.19s0.533,1.19,1.19,1.19h2.244v2.245c0,0.657,0.533,1.19,1.19,1.19s1.19-0.533,1.19-1.19v-2.245
					h2.244c0.658,0,1.19-0.533,1.19-1.19S108.275,109.945,107.618,109.945z"/>
			</g>
			<g>
				<path fill="#C2C4C1" d="M386.019,245.783h-2.245v-2.245c0-0.657-0.532-1.19-1.19-1.19c-0.657,0-1.189,0.533-1.189,1.19v2.245
					h-2.245c-0.657,0-1.19,0.533-1.19,1.19c0,0.657,0.533,1.19,1.19,1.19h2.245v2.245c0,0.658,0.532,1.19,1.189,1.19
					c0.658,0,1.19-0.532,1.19-1.19v-2.245h2.245c0.657,0,1.189-0.533,1.189-1.19C387.208,246.315,386.676,245.783,386.019,245.783z"
					/>
			</g>
			<g>
				<path fill="#C2C4C1" d="M445.975,175.387h-2.244v-2.244c0-0.658-0.533-1.19-1.19-1.19s-1.19,0.533-1.19,1.19v2.244h-2.244
					c-0.657,0-1.19,0.533-1.19,1.19s0.533,1.19,1.19,1.19h2.244v2.244c0,0.657,0.533,1.19,1.19,1.19s1.19-0.533,1.19-1.19v-2.244
					h2.244c0.657,0,1.19-0.533,1.19-1.19S446.632,175.387,445.975,175.387z"/>
			</g>
			<g>
				<path fill="#C2C4C1" d="M329.289,107.475h-2.988v-2.988c0-0.875-0.71-1.585-1.585-1.585s-1.585,0.709-1.585,1.585v2.988h-2.987
					c-0.876,0-1.585,0.709-1.585,1.584s0.709,1.584,1.585,1.584h2.987v2.989c0,0.875,0.71,1.584,1.585,1.584
					s1.585-0.709,1.585-1.584v-2.989h2.988c0.875,0,1.585-0.709,1.585-1.584S330.164,107.475,329.289,107.475z"/>
			</g>
			<g>
				<path fill="#C2C4C1" d="M429.224,344.845h-2.988v-2.988c0-0.875-0.709-1.585-1.584-1.585c-0.876,0-1.585,0.71-1.585,1.585v2.988
					h-2.988c-0.875,0-1.585,0.709-1.585,1.585c0,0.875,0.71,1.584,1.585,1.584h2.988v2.988c0,0.875,0.709,1.585,1.585,1.585
					c0.875,0,1.584-0.71,1.584-1.585v-2.988h2.988c0.876,0,1.585-0.709,1.585-1.584C430.809,345.554,430.1,344.845,429.224,344.845z
					"/>
			</g>
			<g>
				<path fill="#C2C4C1" d="M57.488,220.667H54.5v-2.988c0-0.875-0.709-1.585-1.584-1.585c-0.875,0-1.585,0.709-1.585,1.585v2.988
					h-2.988c-0.875,0-1.584,0.709-1.584,1.584s0.709,1.585,1.584,1.585h2.988v2.988c0,0.875,0.709,1.585,1.585,1.585
					c0.875,0,1.584-0.709,1.584-1.585v-2.988h2.988c0.875,0,1.584-0.71,1.584-1.585S58.363,220.667,57.488,220.667z"/>
			</g>
			<g>
				<path fill="#C2C4C1" d="M75.308,359.642h-2.245v-2.244c0-0.658-0.533-1.19-1.19-1.19c-0.658,0-1.19,0.532-1.19,1.19v2.244
					h-2.245c-0.657,0-1.19,0.533-1.19,1.19s0.533,1.19,1.19,1.19h2.245v2.244c0,0.657,0.533,1.19,1.19,1.19
					c0.657,0,1.19-0.533,1.19-1.19v-2.244h2.245c0.657,0,1.19-0.533,1.19-1.19S75.965,359.642,75.308,359.642z"/>
			</g>
		</g>
	</g>
	<g>
		<g>
			<g>
				<g>
					<g>
						<path fill="#FFC115" d="M179.266,290.962l18.619-20.819c1.365-1.526,1.352-3.839-0.031-5.35l0,0
							c-1.507-1.646-4.071-1.735-5.688-0.197l-14.841,14.114L179.266,290.962z"/>
					</g>
					<g>
						<path fill="#E8A90C" d="M197.883,270.138l-18.62,20.82l-0.59-3.74l17.8-19.91c0.73-0.819,1.06-1.859,1-2.88
							c0.13,0.11,0.26,0.23,0.38,0.36C199.233,266.308,199.253,268.618,197.883,270.138z"/>
					</g>
				</g>
				<g>
					<g>
						<path fill="#C4C6C3" d="M162.565,254.921l18.158,29.267c1.254,2.021,0.91,4.646-0.823,6.275l0,0
							c-2.164,2.034-5.613,1.744-7.406-0.623l-13.577-17.923L162.565,254.921z"/>
					</g>
					<g>
						<path fill="#ACADAC" d="M181.463,286.648c0.06,1.399-0.48,2.8-1.56,3.819c-0.97,0.91-2.2,1.351-3.42,1.351
							c-1.51,0-3-0.67-3.99-1.98l-13.58-17.92l0.95-4.439l0.55,0.689l13.58,17.92c0.99,1.311,2.48,1.98,3.99,1.98
							c1.22,0,2.45-0.44,3.42-1.351C181.423,286.698,181.453,286.678,181.463,286.648z"/>
					</g>
				</g>
				<g>
					<g>
						<path fill="#FFC115" d="M192.818,264.092c0,0,0.469-10.784,4.691-14.684c1.054-0.975,2.594-1.275,3.923-0.731
							c0.019,0.008,0.038,0.016,0.057,0.024c1.302,0.551,2.147,1.829,2.232,3.24c0.204,3.4,0.313,14.022-5.837,18.202
							L192.818,264.092z"/>
					</g>
					<g>
						<path fill="#E8A90C" d="M197.883,270.138l-1.84-2.199c5.32-4.53,5.21-14.341,5.01-17.581c-0.04-0.7-0.27-1.37-0.65-1.93
							c0.35,0.03,0.7,0.11,1.03,0.25c0.02,0.01,0.04,0.01,0.06,0.02c1.3,0.55,2.14,1.83,2.23,3.24
							C203.923,255.338,204.033,265.958,197.883,270.138z"/>
					</g>
				</g>
			</g>
			<g>
				<g>
					<g>
						<path fill="#FFC115" d="M124.582,291.634l-27.74,3.261c-2.034,0.238-3.918-1.103-4.359-3.102l0,0
							c-0.48-2.18,0.922-4.329,3.11-4.768l24.271-4.367L124.582,291.634z"/>
					</g>
					<g>
						<path fill="#E8A90C" d="M124.583,291.638l-27.74,3.261c-2.04,0.239-3.92-1.11-4.36-3.11c-0.06-0.29-0.09-0.58-0.09-0.86
							c0-0.51,0.1-1,0.28-1.46c0.65,1.66,2.351,2.7,4.17,2.49l26.28-3.09L124.583,291.638z"/>
					</g>
				</g>
				<g>
					<g>
						<path fill="#C4C6C3" d="M137.074,254.921l-18.159,29.267c-1.254,2.021-0.91,4.646,0.824,6.275l0,0
							c2.164,2.034,5.613,1.744,7.406-0.623l13.577-17.923L137.074,254.921z"/>
					</g>
					<g>
						<path fill="#ACADAC" d="M140.723,271.918l-13.58,17.92c-0.99,1.311-2.48,1.98-3.99,1.98c-1.22,0-2.44-0.44-3.41-1.351
							c-0.84-0.779-1.35-1.8-1.51-2.88c0.88,0.53,1.87,0.79,2.86,0.79c1.69,0,3.37-0.76,4.49-2.229l14.18-18.721L140.723,271.918z"
							/>
					</g>
				</g>
				<g>
					<g>
						<ellipse fill="#FFC115" cx="92.809" cy="291.143" rx="4.991" ry="5.799"/>
					</g>
					<g>
						<path fill="#E8A90C" d="M94.163,296.718c-0.43,0.141-0.88,0.221-1.35,0.221c-2.76,0-4.99-2.591-4.99-5.801
							c0-3.199,2.23-5.8,4.99-5.8c0.47,0,0.92,0.08,1.35,0.22c-2.1,0.681-3.64,2.931-3.64,5.58
							C90.523,293.798,92.063,296.038,94.163,296.718z"/>
					</g>
				</g>
			</g>
			<g>
				<g>
					<path fill="#C4C6C3" d="M166.509,305.207h-33.178l1.277-42.471c0.228-7.589,6.446-13.623,14.039-13.623h2.546
						c7.593,0,13.811,6.034,14.039,13.623L166.509,305.207z"/>
				</g>
				<g>
					<path fill="#ACADAC" d="M153.613,249.328c-6.45,1.12-11.41,6.649-11.61,13.41l-1.28,42.47h-7.39l1.27-42.47
						c0.23-7.59,6.45-13.62,14.04-13.62h2.55C152.023,249.118,152.833,249.188,153.613,249.328z"/>
				</g>
			</g>
		</g>
		<g>
			<g>
				<g>
					<path fill="#FFC115" d="M153.713,240.598v8.57c0,2.1-1.7,3.8-3.791,3.8c-2.1,0-3.8-1.7-3.8-3.8v-8.57H153.713z"/>
				</g>
				<g>
					<path fill="#E8A90C" d="M153.713,240.598v3.72c-1.291,0.42-2.66,0.65-4.09,0.65c-1.21,0-2.39-0.16-3.5-0.47v-3.9H153.713z"/>
				</g>
			</g>
			<g>
				<g>
					<rect x="162.791" y="213.089" fill="#2A363F" width="4.486" height="10.23"/>
				</g>
				<g>
					<g>
						<path fill="#313F4A" d="M159.772,201.601c-2.767,0-5.178,1.502-6.479,3.73l-0.359-0.43c-3.345-4.004-8.294-6.319-13.512-6.319
							c-5.224,0-9.459,4.235-9.459,9.459l0,0c0,2.787,2.26,5.047,5.047,5.047h17.258h7.505h7.505v-3.983
							C167.277,204.961,163.917,201.601,159.772,201.601z"/>
					</g>
					<g>
						<path fill="#2A363F" d="M167.273,209.778v3.31h-32.26c-1.39,0-2.66-0.56-3.57-1.48c-0.919-0.91-1.479-2.18-1.479-3.57
							c0-0.66,0.07-1.31,0.2-1.93c0.23,0.84,0.67,1.59,1.28,2.19c0.91,0.91,2.18,1.48,3.57,1.48H167.273z"/>
					</g>
				</g>
			</g>
			<g>
				<g>
					<g>
						<path fill="#FFC115" d="M149.626,242.773L149.626,242.773c-7.271,0-13.165-5.894-13.165-13.165v-16.519h26.33v16.519
							C162.791,236.879,156.897,242.773,149.626,242.773z"/>
					</g>
					<g>
						<path fill="#E8A90C" d="M151.54,242.637c-0.62,0.09-1.26,0.14-1.91,0.14c-7.27,0-13.17-5.9-13.17-13.17v-16.52h3.83v16.52
							C140.29,236.227,145.18,241.707,151.54,242.637z"/>
					</g>
				</g>
				<g>
					<g>
						<path fill="#FFC115" d="M165.978,231.117h-3.187v-7.798h3.187c2.153,0,3.899,1.746,3.899,3.899l0,0
							C169.876,229.372,168.131,231.117,165.978,231.117z"/>
					</g>
					<g>
						<path fill="#E8A90C" d="M169.88,227.216c0,1.08-0.44,2.05-1.14,2.76c-0.71,0.71-1.68,1.14-2.76,1.14h-3.19v-1.69h3.19
							c1.08,0,2.05-0.44,2.76-1.14c0.51-0.51,0.88-1.17,1.04-1.91C169.85,226.646,169.88,226.926,169.88,227.216z"/>
					</g>
				</g>
			</g>
		</g>
		<g>
			<g>
				<g>
					<g>
						<polygon fill="#7BE0E0" points="166.509,305.207 168.898,376.791 156.246,376.791 148.936,305.207 						"/>
					</g>
					<g>
						<polygon fill="#53C9C6" points="163.243,376.791 156.243,376.791 148.933,305.208 155.933,305.208 						"/>
					</g>
				</g>
				<g>
					<g>
						<path fill="#313F4A" d="M156.246,376.791v5.226c0,1.462,1.185,2.647,2.647,2.647h19.527c1.263,0,2.288-1.024,2.288-2.287l0,0
							c0-0.984-0.63-1.859-1.564-2.171l-10.245-3.415H156.246z"/>
					</g>
					<g>
						<path fill="#28353D" d="M165.893,384.661h-7c-1.46,0-2.65-1.181-2.65-2.641v-5.229h7v5.229
							C163.243,383.48,164.433,384.661,165.893,384.661z"/>
					</g>
				</g>
			</g>
			<g>
				<g>
					<path fill="#7BE0E0" d="M150.172,321.544h-0.505c-9.022,0-16.336-7.314-16.336-16.337l0,0h33.178l0,0
						C166.509,314.229,159.195,321.544,150.172,321.544z"/>
				</g>
				<g>
					<g>
						<g>
							<polygon fill="#7BE0E0" points="131.755,333.871 128.373,374.468 138.954,376.791 144.319,335.993 							"/>
						</g>
						<g>
							<path fill="#7BE0E0" d="M133.331,305.207l-1.699,30.926c-0.178,3.233,2.185,6.051,5.4,6.438l0,0
								c2.977,0.359,5.779-1.481,6.63-4.356l9.772-33.008H133.331z"/>
						</g>
						<g>
							<polygon fill="#53C9C6" points="133.333,305.208 131.753,333.868 128.373,374.471 135.003,375.921 137.613,342.608 
								138.243,336.648 138.303,336.658 138.433,334.998 140.723,305.208 							"/>
						</g>
					</g>
					<g>
						<g>
							<path fill="#313F4A" d="M138.954,376.791v5.097c0,1.533-1.243,2.776-2.777,2.776h-17.019c-2.035,0-3.457-2.016-2.774-3.933
								l0,0c0.272-0.765,0.849-1.383,1.592-1.709l10.396-4.555L138.954,376.791z"/>
						</g>
						<g>
							<path fill="#28353D" d="M129.143,384.661h-9.98c-2.04,0-3.46-2.011-2.78-3.931c0.27-0.76,0.85-1.38,1.59-1.71l10.4-4.55
								l6.65,1.46l-7.06,3.09c-0.75,0.33-1.32,0.95-1.6,1.71C125.683,382.65,127.103,384.661,129.143,384.661z"/>
						</g>
					</g>
				</g>
			</g>
		</g>
		<g>
			<g>
				<g>
					
						<rect x="95.524" y="246.689" transform="matrix(0.9843 -0.1765 0.1765 0.9843 -52.59 23.8209)" fill="#313F4A" width="24.174" height="121.699"/>
				</g>
				<g>
					<polygon fill="#28353D" points="113.293,368.344 106.453,369.563 84.973,249.774 91.823,248.544 					"/>
				</g>
			</g>
			<g>
				<path fill="#505D66" d="M91.795,228.061l3.038-0.544l-0.958-5.348c-0.15-0.839-0.953-1.397-1.792-1.247l0,0
					c-0.838,0.15-1.396,0.952-1.246,1.791L91.795,228.061z"/>
			</g>
			<g>
				<g>
					<path fill="#313F4A" d="M99.039,361.25l-7-39.046c-0.376-2.097-2.381-3.492-4.478-3.116l0,0
						c-2.097,0.376-3.492,2.381-3.116,4.478l7.42,41.388l0,0c0.688,3.838,4.357,6.392,8.196,5.703l0.644-0.115l5.738-1.028
						l-1.246-6.95l-3.396,0.609C100.507,363.403,99.271,362.543,99.039,361.25z"/>
				</g>
				<g>
					<path fill="#28353D" d="M100.513,370.573l-0.45,0.08c-0.42,0.08-0.84,0.11-1.26,0.11c-3.35,0-6.33-2.39-6.94-5.81l-7.42-41.391
						c-0.04-0.229-0.06-0.46-0.06-0.68c0-1.61,1-3.05,2.5-3.61c-0.03,0.19-0.04,0.38-0.04,0.57c0,0.24,0.03,0.479,0.07,0.729
						l7.89,44.011C95.353,367.644,97.663,369.934,100.513,370.573z"/>
				</g>
			</g>
			<g>
				<g>
					<path fill="#505D66" d="M121.367,384.267L121.367,384.267c-6.571,1.178-12.852-3.193-14.03-9.765l-1.513-8.438l23.794-4.266
						l1.513,8.438C132.31,376.807,127.938,383.088,121.367,384.267z"/>
				</g>
				<g>
					<path fill="#455259" d="M124.793,383.094c-1.05,0.55-2.2,0.95-3.43,1.17c-6.57,1.18-12.85-3.19-14.03-9.76l-1.51-8.44l6.7-1.2
						l1.39,7.73C114.913,378.214,119.423,382.334,124.793,383.094z"/>
				</g>
			</g>
			<g>
				<g>
					<path fill="#C4C6C3" d="M129.656,365.406l-22.613,4.054c-1.934,0.347-3.783-0.939-4.13-2.874l0,0
						c-0.347-1.934,0.94-3.782,2.874-4.129l22.613-4.055c1.934-0.347,3.783,0.94,4.129,2.874l0,0
						C132.876,363.211,131.59,365.06,129.656,365.406z"/>
				</g>
				<g>
					<path fill="#ACADAC" d="M113.213,368.354l-6.17,1.11c-1.93,0.34-3.78-0.94-4.13-2.88c-0.04-0.21-0.06-0.431-0.06-0.63
						c0-1.69,1.21-3.19,2.93-3.5l6.18-1.11c-1.13,0.68-1.85,1.92-1.85,3.27c0,0.221,0.02,0.44,0.06,0.67
						C110.463,366.884,111.703,368.073,113.213,368.354z"/>
				</g>
			</g>
			<g>
				<g>
					<polygon fill="#C4C6C3" points="108.771,245.512 94.833,227.516 91.795,228.061 84.976,249.777 					"/>
				</g>
				<g>
					<polygon fill="#ACADAC" points="96.353,229.484 91.823,248.544 84.973,249.774 91.793,228.063 94.833,227.514 					"/>
				</g>
			</g>
		</g>
		<g>
			<g>
				<ellipse fill="#FFC115" cx="92.809" cy="291.143" rx="4.991" ry="5.799"/>
			</g>
			<g>
				<path fill="#E8A90C" d="M94.163,296.718c-0.43,0.141-0.88,0.221-1.35,0.221c-2.76,0-4.99-2.591-4.99-5.801
					c0-3.199,2.23-5.8,4.99-5.8c0.47,0,0.92,0.08,1.35,0.22c-2.1,0.681-3.64,2.931-3.64,5.58
					C90.523,293.798,92.063,296.038,94.163,296.718z"/>
			</g>
		</g>
	</g>
</g>
<g id="DESIGNED_BY_FREEPIK">
</g>
</svg>
