<?xml version="1.0" encoding="utf-8"?>
<!-- Generator: Adobe Illustrator 16.0.0, SVG Export Plug-In . SVG Version: 6.00 Build 0)  -->
<!DOCTYPE svg PUBLIC "-//W3C//DTD SVG 1.1//EN" "http://www.w3.org/Graphics/SVG/1.1/DTD/svg11.dtd">
<svg version="1.1" xmlns="http://www.w3.org/2000/svg" xmlns:xlink="http://www.w3.org/1999/xlink" x="0px" y="0px" width="500px"
	 height="500px" viewBox="0 0 500 500" enable-background="new 0 0 500 500" xml:space="preserve">
<g id="BACKGROUND">
	<g>
		<rect x="0" y="-0.004" fill="#FFFFFF" width="500" height="500"/>
	</g>
</g>
<g id="OBJECTS">
	<path opacity="0.25" fill="#231F20" d="M458.675,426.722H41.325c-1.289,0-2.334-1.045-2.334-2.334l0,0
		c0-1.289,1.045-2.334,2.334-2.334h417.35c1.29,0,2.335,1.045,2.335,2.334l0,0C461.01,425.677,459.965,426.722,458.675,426.722z"/>
	<g>
		<g>
			<g>
				<path fill="#BABCBE" d="M430.893,250.856c-0.004,0-0.009,0-0.014,0c-1.68-0.046-2.718-0.562-3.087-1.533
					c-1.135-2.992,5.313-9.141,6.051-9.832c0.202-0.188,0.519-0.179,0.707,0.023s0.178,0.519-0.023,0.707
					c-2.602,2.435-6.477,6.962-5.799,8.746c0.211,0.557,0.943,0.855,2.179,0.889c0.275,0.008,0.493,0.237,0.486,0.514
					C431.385,250.642,431.163,250.856,430.893,250.856z"/>
			</g>
			<polygon fill="#BD1E2D" points="446.997,239.994 446.997,240.023 445.997,261.773 431.127,261.773 430.127,239.994 			"/>
			<polygon fill="#AA182D" points="446.997,240.023 446.688,246.773 446.308,255.023 445.997,261.773 439.617,261.773 
				440.018,240.094 			"/>
			<rect x="429.559" y="239.273" fill="#A5A7AA" width="18" height="1.636"/>
			<path fill="none" stroke="#CFD1D2" stroke-linecap="round" stroke-linejoin="round" stroke-miterlimit="10" d="M443.934,239.857
				c0,0-2.536,10.5-13.81,10.5"/>
			<polygon fill="#BABCBE" points="446.688,246.773 446.308,255.023 441.247,255.023 441.397,246.773 			"/>
		</g>
		<g>
			<path fill="#A5A7AA" d="M457.217,252.511c0.764,5.115-1.358,9.261-4.741,9.261s-6.745-4.146-7.509-9.261
				c-0.765-5.114,1.358-9.261,4.741-9.261S456.452,247.396,457.217,252.511z"/>
			<path fill="#BABCBE" d="M458.218,252.511c0.764,5.115-1.359,9.261-4.741,9.261c-3.383,0-6.745-4.146-7.509-9.261
				c-0.765-5.114,1.358-9.261,4.741-9.261S457.453,247.396,458.218,252.511z"/>
			<path fill="#A5A7AA" d="M457.791,252.511c0.711,4.759-1.264,8.616-4.411,8.616s-6.275-3.857-6.986-8.616
				c-0.711-4.758,1.265-8.615,4.411-8.615C453.952,243.896,457.08,247.753,457.791,252.511z"/>
		</g>
	</g>
	<g>
		<polygon fill="#776951" points="480.01,342.025 414.914,423.056 417.602,423.056 482.51,342.025 		"/>
		<polygon fill="#776951" points="484.128,423.056 486.628,423.056 477.623,261.975 475.123,261.975 		"/>
		<polygon fill="#776951" points="414.084,423.056 416.584,423.056 411.581,261.975 409.081,261.975 		"/>
		<polygon fill="#776951" points="411.581,261.975 480.852,340.723 478.165,340.723 409.081,261.975 		"/>
		<polygon fill="#A5977E" points="385.681,342.025 450.776,423.056 448.09,423.056 383.181,342.025 		"/>
		<polygon fill="#A5977E" points="381.563,423.056 379.063,423.056 388.067,261.975 390.567,261.975 		"/>
		<polygon fill="#A5977E" points="451.606,423.056 449.106,423.056 454.109,261.975 456.609,261.975 		"/>
		<rect x="399.305" y="260.673" fill="#A5977E" width="87.422" height="2.604"/>
		<g>
			<rect x="399.305" y="340.723" fill="#A5977E" width="90.424" height="2.604"/>
			<rect x="376.936" y="340.723" fill="#C0B399" width="90.424" height="2.604"/>
		</g>
		<polygon fill="#A5977E" points="454.109,261.975 384.839,340.723 387.525,340.723 456.609,261.975 		"/>
		<rect x="379.938" y="260.673" fill="#C0B399" width="87.422" height="2.604"/>
	</g>
	<g>
		<g>
			<path fill="#A5A7AA" d="M101.962,413.793c0.764,5.115-1.358,9.261-4.741,9.261s-6.745-4.146-7.509-9.261
				c-0.764-5.114,1.358-9.261,4.741-9.261S101.198,408.679,101.962,413.793z"/>
			<path fill="#BABCBE" d="M102.963,413.793c0.764,5.115-1.359,9.261-4.742,9.261c-3.382,0-6.744-4.146-7.508-9.261
				c-0.765-5.114,1.358-9.261,4.741-9.261C98.837,404.532,102.199,408.679,102.963,413.793z"/>
			<path fill="#A5A7AA" d="M102.537,413.793c0.711,4.759-1.264,8.616-4.411,8.616s-6.275-3.857-6.986-8.616
				c-0.711-4.758,1.264-8.615,4.411-8.615C98.698,405.178,101.826,409.035,102.537,413.793z"/>
		</g>
		<g>
			<g>
				<path fill="#BABCBE" d="M78.598,412.139c-0.004,0-0.009,0-0.014,0c-1.68-0.046-2.718-0.562-3.087-1.533
					c-1.135-2.992,5.313-9.141,6.051-9.832c0.202-0.188,0.519-0.179,0.707,0.023s0.178,0.519-0.023,0.707
					c-2.602,2.435-6.477,6.962-5.799,8.746c0.211,0.557,0.943,0.855,2.179,0.889c0.275,0.008,0.493,0.237,0.486,0.514
					C79.09,411.924,78.869,412.139,78.598,412.139z"/>
			</g>
			<polygon fill="#26A8DF" points="94.703,401.275 94.703,401.306 93.703,423.056 78.833,423.056 77.833,401.275 			"/>
			<polygon fill="#148EAF" points="94.703,401.306 94.393,408.056 94.013,416.306 93.703,423.056 87.323,423.056 87.723,401.376 			
				"/>
			<rect x="77.265" y="400.556" fill="#A5A7AA" width="18" height="1.636"/>
			<path fill="none" stroke="#CFD1D2" stroke-linecap="round" stroke-linejoin="round" stroke-miterlimit="10" d="M91.64,401.139
				c0,0-2.537,10.5-13.81,10.5"/>
			<polygon fill="#BABCBE" points="94.393,408.056 94.013,416.306 88.953,416.306 89.104,408.056 			"/>
		</g>
		<g>
			<g>
				<path fill="#BABCBE" d="M63.012,412.139c0.004,0,0.009,0,0.014,0c1.68-0.046,2.718-0.562,3.087-1.533
					c1.135-2.992-5.313-9.141-6.051-9.832c-0.202-0.188-0.519-0.179-0.707,0.023s-0.178,0.519,0.023,0.707
					c2.602,2.435,6.477,6.962,5.799,8.746c-0.211,0.557-0.943,0.855-2.179,0.889c-0.275,0.008-0.493,0.237-0.486,0.514
					C62.52,411.924,62.742,412.139,63.012,412.139z"/>
			</g>
			<polygon fill="#009245" points="46.907,401.275 46.907,401.306 47.907,423.056 62.777,423.056 63.777,401.275 			"/>
			<polygon fill="#37B24A" points="46.907,401.306 47.217,408.056 47.597,416.306 47.907,423.056 54.287,423.056 53.887,401.376 			
				"/>
			<rect x="46.346" y="400.556" fill="#A5A7AA" width="18" height="1.636"/>
			<path fill="none" stroke="#CFD1D2" stroke-linecap="round" stroke-linejoin="round" stroke-miterlimit="10" d="M49.971,401.139
				c0,0,2.536,10.5,13.81,10.5"/>
			<polygon fill="#BABCBE" points="47.217,408.056 47.597,416.306 52.657,416.306 52.507,408.056 			"/>
		</g>
		<g>
			<path fill="#A5A7AA" d="M39.36,413.793c-0.764,5.115,1.358,9.261,4.741,9.261s6.745-4.146,7.509-9.261
				c0.764-5.114-1.358-9.261-4.741-9.261S40.125,408.679,39.36,413.793z"/>
			<path fill="#BABCBE" d="M38.36,413.793c-0.764,5.115,1.358,9.261,4.741,9.261s6.745-4.146,7.509-9.261
				c0.764-5.114-1.358-9.261-4.741-9.261S39.124,408.679,38.36,413.793z"/>
			<path fill="#A5A7AA" d="M38.786,413.793c-0.711,4.759,1.264,8.616,4.411,8.616c3.147,0,6.275-3.857,6.986-8.616
				c0.711-4.758-1.264-8.615-4.411-8.615C42.625,405.178,39.498,409.035,38.786,413.793z"/>
		</g>
	</g>
	<g>
		<path fill="#404041" d="M101.21,423.048l-4.935,0.007l-0.215-7.292l2.531-0.003c-0.085,1.308-0.247,2.305,0.153,2.975
			c0.39,0.655,0.803,0.996,0.803,0.996C102.241,420.697,101.21,423.048,101.21,423.048z"/>
		<path fill="#404041" d="M137.396,423.035l-8.755,0.021l-0.662-8.325h2.386c-0.084,1.309,0.339,3.333,0.74,4.002
			c0.39,0.656,0.804,0.995,0.804,0.995C138.266,421.414,137.396,423.035,137.396,423.035z"/>
		<path fill="#404041" d="M94.037,373.451c0,0-1.912,12.634,1.805,44.842h2.942c0,0,4.989-32.802,4.894-43.971l3.875-24.366h0.993
			c0,0,2.807,18.85,6.065,24.366c0,0,1.563,17.655,13.368,43.696l3.141-0.419l-5.538-43.277c0,0-4.417-30.705-5.238-43.744
			c-0.025-0.465-0.051-0.91-0.07-1.33l-28.51,0.426c0,0-0.006,0.478-0.006,1.433C91.758,335.376,91.962,349.218,94.037,373.451z"/>
		<g>
			<path fill="#58595B" d="M91.758,331.106c18.042,2.768,25.831,0.681,28.586-0.528c-0.025-0.465-0.051-0.91-0.07-1.33l-28.51,0.426
				C91.765,329.674,91.758,330.151,91.758,331.106z"/>
			<rect x="106.051" y="330.092" fill="#A5A7AA" width="4.321" height="2.384"/>
			<rect x="99.236" y="329.248" fill="#404041" width="1.177" height="3.708"/>
			<rect x="114.845" y="329.008" fill="#404041" width="1.178" height="3.708"/>
		</g>
		<path fill="#B73434" d="M121.859,281.16c5.007,4.284,11.646,9.305,11.646,9.305l-1.208-13.324l2.203,0.294
			c0,0,7.665,18.207,2.733,21.072c-4.734,2.75-19.526-3.457-19.526-3.457L121.859,281.16z"/>
		<path fill="#C63838" d="M89.495,280.014c0,0,23.843-5.731,32.364,1.146c0,0,3.498,23.681-1.586,48.087
			c0,0-9.371,2.966-28.506,0.428C91.767,329.675,83.342,300.996,89.495,280.014z"/>
		<path fill="#DB8F65" d="M108.308,274.973c0.487,3.674-3.005,7.323-3.005,7.323s-6.589-2.648-4.919-6.793
			c1.225-3.038,0.675-5.192,0.675-5.192S107.644,269.965,108.308,274.973z"/>
		<path fill="#B73434" d="M106.663,279.407l0.282,1.003c0,0,1.313-2.51,1.65-4.333l1.379,1.348c0,0,1.436,3.485,1.159,5.625
			l-3.28-1.243l-0.696,1.401l-1.916-1.739L106.663,279.407z"/>
		<path fill="#D14A4A" d="M99.121,277.808l1.264-2.305c0,0,3.508,3.652,6.279,3.904l-1.318,5.283
			C105.345,284.69,101.315,282.604,99.121,277.808z"/>
		<path fill="#D14A4A" d="M107.069,282.229l1.061-2.554l3.004,3.374c0,0,1.193-5.085-2.538-6.973
			C108.596,276.077,108.259,279.229,107.069,282.229z"/>
		<path fill="#D14A4A" d="M114.868,291.816l5.506-0.314l0.174,6.554c0.023,0.852-0.636,1.565-1.485,1.611l-2.474,0.134
			c-0.894,0.049-1.647-0.658-1.656-1.554L114.868,291.816z"/>
		<path fill="#F2A779" d="M134.501,277.435c0,0-1.075,0.935-2.203-0.294c0,0-1.591-3.173-1.35-3.607s0.494-3.229,1.551-3.735
			c0,0,0.682,0.367,1.006,0.664c0.475,0.435-1.107,2.665-0.614,2.97s0.964,1.328,0.964,1.328l0.86-0.389
			c0,0,0.487-1.556,1.373-1.251c0,0-0.668,1.021-0.685,2.597C135.396,276.429,134.501,277.435,134.501,277.435z"/>
		<path fill="#404041" d="M108.135,280.666l-1.577,0.256l-0.753,1.925l1.088,2.271c0,0,0.464,26.384-0.335,33.281l2.634,2.045
			l2.533-2.545c0,0-1.306-26.241-2.96-33.209l0.427-2.831L108.135,280.666z"/>
		<g>
			<path fill="#F2A779" d="M104.407,274.38c1.243,1.096,2.433,2.303,4.641,2.535c1.908,0.2,3.318-2.297,4.145-5.487
				c1.29-5.017,1.125-11.74-0.806-12.305c0,0-8.178-0.511-10.368,1.924C100.303,262.954,98.668,269.316,104.407,274.38z"/>
			<g>
				<path fill="#F2A779" d="M111.763,267.303c0.054,0.646,0.186,1.3,0.444,1.896c0.207,0.477,1.399,1.476,0.959,2.004
					c-0.476,0.572-2.048,0.542-2.433-0.127"/>
				<path fill="#404041" d="M111.763,267.303c0,0,0.068,0.438,0.255,1.059c0.096,0.299,0.22,0.69,0.431,0.983
					c0.235,0.318,0.549,0.634,0.79,1.033c0.106,0.198,0.224,0.453,0.133,0.743c-0.024,0.07-0.061,0.121-0.115,0.19
					c-0.042,0.037-0.069,0.073-0.123,0.111c-0.107,0.081-0.211,0.131-0.314,0.172c-0.421,0.157-0.834,0.132-1.167,0.071
					c-0.336-0.063-0.593-0.209-0.739-0.343c-0.144-0.14-0.175-0.252-0.181-0.247c0,0,0.063,0.095,0.218,0.2
					c0.154,0.107,0.414,0.186,0.727,0.218c0.312,0.034,0.694-0.005,1.041-0.146c0.086-0.036,0.168-0.084,0.229-0.131
					c0.034-0.021,0.073-0.07,0.11-0.104c0.004-0.018,0.038-0.055,0.043-0.086c0.042-0.132-0.024-0.324-0.13-0.497
					c-0.2-0.36-0.497-0.684-0.74-1.031c-0.145-0.192-0.19-0.388-0.251-0.571c-0.055-0.184-0.097-0.36-0.129-0.523
					C111.732,267.745,111.763,267.303,111.763,267.303z"/>
			</g>
			<g>
				<path fill="#FFFFFF" d="M107.693,267.517c0.145,0.418,0.64,0.604,1.105,0.396c0.45-0.201,0.614-0.525,0.469-0.943
					c-0.145-0.417-0.485-0.678-0.966-0.511C107.82,266.626,107.548,267.1,107.693,267.517z"/>
				<circle fill="#404041" cx="108.712" cy="267.385" r="0.572"/>
				<g>
					<path fill="#404041" d="M109.283,267.418c0,0,0.074-0.242-0.096-0.541c-0.07-0.149-0.203-0.305-0.392-0.371
						c-0.189-0.064-0.412-0.023-0.609,0.075c-0.188,0.097-0.357,0.238-0.435,0.424c-0.078,0.184-0.063,0.385-0.001,0.535
						c0.127,0.31,0.361,0.412,0.361,0.412c0.018-0.011-0.264-0.04-0.44-0.377c-0.079-0.163-0.113-0.392-0.035-0.614
						c0.079-0.22,0.26-0.424,0.496-0.51c0.216-0.092,0.481-0.135,0.702-0.045c0.22,0.091,0.357,0.273,0.425,0.438
						c0.067,0.167,0.076,0.318,0.065,0.42C109.311,267.368,109.283,267.418,109.283,267.418z"/>
				</g>
				<circle fill="#FFFFFF" cx="108.986" cy="267.235" r="0.151"/>
			</g>
			<g>
				<path fill="#FFFFFF" d="M111.989,267.039c0.145,0.417,0.641,0.604,1.105,0.396c0.45-0.2,0.614-0.525,0.469-0.942
					c-0.145-0.418-0.485-0.679-0.966-0.512S111.844,266.621,111.989,267.039z"/>
				<circle fill="#404041" cx="113.009" cy="266.907" r="0.572"/>
				<g>
					<path fill="#404041" d="M113.58,266.94c0,0,0.074-0.242-0.096-0.542c-0.071-0.148-0.203-0.304-0.392-0.37
						c-0.189-0.065-0.412-0.023-0.609,0.075c-0.188,0.096-0.357,0.237-0.435,0.423c-0.078,0.184-0.063,0.385-0.001,0.535
						c0.127,0.31,0.361,0.413,0.361,0.413c0.018-0.011-0.265-0.04-0.44-0.378c-0.079-0.163-0.113-0.392-0.035-0.614
						c0.079-0.219,0.26-0.424,0.496-0.509c0.216-0.092,0.481-0.136,0.701-0.045c0.221,0.09,0.357,0.273,0.426,0.437
						c0.067,0.168,0.076,0.319,0.065,0.421C113.608,266.89,113.58,266.94,113.58,266.94z"/>
				</g>
				<circle fill="#FFFFFF" cx="113.283" cy="266.757" r="0.152"/>
			</g>
			<g>
				<path fill="#404041" d="M109.73,265.683c0,0-0.171-0.102-0.408-0.135c-0.114-0.029-0.247-0.013-0.376-0.005
					c-0.064,0.005-0.139,0.02-0.199,0.036c-0.089,0.024-0.167,0.051-0.238,0.076c-0.16,0.035-0.318,0.084-0.462,0.142
					c-0.144,0.058-0.293,0.091-0.411,0.146c-0.249,0.085-0.429,0.158-0.429,0.158l-0.021-0.021c0,0,0.125-0.131,0.347-0.287
					c0.22-0.156,0.543-0.327,0.89-0.432c0.34-0.113,0.734-0.114,0.978,0.022c0.248,0.123,0.354,0.281,0.354,0.281L109.73,265.683z"
					/>
			</g>
			<g>
				<path fill="#404041" d="M113.722,265.134c0,0-0.171-0.102-0.408-0.134c-0.114-0.03-0.247-0.014-0.376-0.006
					c-0.064,0.005-0.139,0.021-0.199,0.037c-0.089,0.024-0.167,0.05-0.238,0.076c-0.161,0.034-0.318,0.083-0.462,0.141
					c-0.143,0.059-0.293,0.092-0.411,0.146c-0.249,0.086-0.429,0.159-0.429,0.159l-0.021-0.022c0,0,0.125-0.131,0.347-0.286
					c0.221-0.156,0.543-0.328,0.89-0.432c0.34-0.113,0.734-0.114,0.978,0.022c0.248,0.123,0.354,0.281,0.354,0.281L113.722,265.134z
					"/>
			</g>
			<path fill="#404041" d="M106.426,262.542c0,0-0.476,3.392-2.719,4.658c0,0-0.474,1.057-0.396,2.061c0,0-0.849-1.194-1.031-2.188
				c0,0-0.428-0.531-0.979,0.067c-0.551,0.6-0.406,2.5,0.734,3.362c0.263,0.198,0.689,0.335,0.689,0.335s-0.527,0.636-1.666,0.58
				c0,0-2.441-5.054-2.336-8.707c0.122-4.24,1.573-4.729,2.628-5.102c1.124-0.395,2.049-0.32,2.049-0.32s2.048-1.428,5.137-1.39
				c2.376,0.03,4.899,1.822,5.756,4.398c0.841,2.528-0.28,3.72-0.28,3.72S109.867,265.115,106.426,262.542z"/>
			<path fill="#A32424" d="M111.526,272.423c0,0-3.12,0.25-3.872,0c0,0,0.636,2.1,2.372,1.875
				C111.315,274.132,111.526,272.423,111.526,272.423z"/>
		</g>
		<path fill="#F2A779" d="M125.526,299.803c0,0,4.532,0.06,5.377,0.455c0.845,0.396-1.767,0.319-1.767,0.319s0.783,1.613-0.838,1.92
			c-1.621,0.308-2.773-0.404-2.773-0.404V299.803z"/>
		<path fill="#B73434" d="M89.495,280.014c2.702-1.366,10.679,18.549,10.679,18.549l25.542,1.25c0,0,0.227,0.444,0.227,1.194
			c0,0.625-0.417,1.086-0.417,1.086s-32.125,9.205-34.208,4.29C89.729,302.635,77.606,286.03,89.495,280.014z"/>
	</g>
	<g>
		<g>
			<path fill="#808083" d="M258.5,102.819h-17v-2.5c0-4.694,3.806-8.5,8.5-8.5l0,0c4.694,0,8.5,3.806,8.5,8.5V102.819z"/>
			<path fill="#C0B399" d="M367.489,110.069v301c0,2.58-0.85,4.96-2.29,6.88v0.011c-2.1,2.8-5.439,4.609-9.21,4.609h-212
				c-6.35,0-11.5-5.149-11.5-11.5v-301c0-6.35,5.15-11.5,11.5-11.5h212C362.34,98.569,367.489,103.719,367.489,110.069z"/>
			<path fill="#6D6E70" d="M297.569,121.068h-95.139c-0.928,0-1.681-0.753-1.681-1.681V99.249c0-0.928,0.752-1.68,1.681-1.68h95.139
				c0.928,0,1.681,0.752,1.681,1.68v20.139C299.25,120.315,298.497,121.068,297.569,121.068z"/>
			<rect x="143.5" y="109.569" fill="#FFFFFF" width="213" height="302"/>
			<path fill="none" stroke="#A5A7AA" stroke-width="2" stroke-miterlimit="10" d="M296.25,105.139v9.49
				c0,1.762-1.428,3.19-3.19,3.19h-36.128c-0.769,0-1.44-0.445-1.834-1.105c-1.035-1.735-2.931-2.895-5.098-2.895
				c-2.167,0-4.063,1.16-5.097,2.895c-0.394,0.661-1.066,1.105-1.835,1.105H206.94c-1.762,0-3.19-1.428-3.19-3.19v-9.5
				c0-1.756,1.424-3.18,3.18-3.18h86.129C294.822,101.949,296.25,103.377,296.25,105.139z"/>
			<rect x="207" y="100.069" fill="#808083" width="86" height="3.75"/>
		</g>
		<g>
			
				<line fill="none" stroke="#6D6E70" stroke-width="8" stroke-linecap="round" stroke-linejoin="round" stroke-miterlimit="10" x1="164.5" y1="145.563" x2="335.5" y2="145.563"/>
			<g>
				<g>
					
						<line fill="none" stroke="#BABCBE" stroke-width="3" stroke-linecap="round" stroke-linejoin="round" stroke-miterlimit="10" x1="164.5" y1="194.046" x2="294.008" y2="194.046"/>
					
						<line fill="none" stroke="#BABCBE" stroke-width="3" stroke-linecap="round" stroke-linejoin="round" stroke-miterlimit="10" x1="164.5" y1="202.046" x2="294.008" y2="202.046"/>
					
						<line fill="none" stroke="#BABCBE" stroke-width="3" stroke-linecap="round" stroke-linejoin="round" stroke-miterlimit="10" x1="164.5" y1="210.046" x2="275.996" y2="210.046"/>
				</g>
				
					<rect x="314.157" y="191.375" fill="none" stroke="#BABCBE" stroke-width="3" stroke-linecap="round" stroke-linejoin="round" stroke-miterlimit="10" width="21.343" height="21.343"/>
				<g>
					<g>
						
							<line fill="none" stroke="#BABCBE" stroke-width="3" stroke-linecap="round" stroke-linejoin="round" stroke-miterlimit="10" x1="164.5" y1="234.071" x2="294.008" y2="234.071"/>
						
							<line fill="none" stroke="#BABCBE" stroke-width="3" stroke-linecap="round" stroke-linejoin="round" stroke-miterlimit="10" x1="164.5" y1="242.071" x2="294.008" y2="242.071"/>
						
							<line fill="none" stroke="#BABCBE" stroke-width="3" stroke-linecap="round" stroke-linejoin="round" stroke-miterlimit="10" x1="164.5" y1="250.071" x2="275.996" y2="250.071"/>
					</g>
					
						<rect x="314.157" y="231.4" fill="none" stroke="#BABCBE" stroke-width="3" stroke-linecap="round" stroke-linejoin="round" stroke-miterlimit="10" width="21.343" height="21.343"/>
				</g>
				<g>
					<g>
						
							<line fill="none" stroke="#BABCBE" stroke-width="3" stroke-linecap="round" stroke-linejoin="round" stroke-miterlimit="10" x1="164.5" y1="274.097" x2="294.008" y2="274.097"/>
						
							<line fill="none" stroke="#BABCBE" stroke-width="3" stroke-linecap="round" stroke-linejoin="round" stroke-miterlimit="10" x1="164.5" y1="282.097" x2="294.008" y2="282.097"/>
						
							<line fill="none" stroke="#BABCBE" stroke-width="3" stroke-linecap="round" stroke-linejoin="round" stroke-miterlimit="10" x1="164.5" y1="290.097" x2="275.996" y2="290.097"/>
					</g>
					
						<rect x="314.157" y="271.425" fill="none" stroke="#BABCBE" stroke-width="3" stroke-linecap="round" stroke-linejoin="round" stroke-miterlimit="10" width="21.343" height="21.344"/>
				</g>
				<g>
					<g>
						
							<line fill="none" stroke="#BABCBE" stroke-width="3" stroke-linecap="round" stroke-linejoin="round" stroke-miterlimit="10" x1="164.5" y1="314.122" x2="294.008" y2="314.122"/>
						
							<line fill="none" stroke="#BABCBE" stroke-width="3" stroke-linecap="round" stroke-linejoin="round" stroke-miterlimit="10" x1="164.5" y1="322.122" x2="294.008" y2="322.122"/>
						
							<line fill="none" stroke="#BABCBE" stroke-width="3" stroke-linecap="round" stroke-linejoin="round" stroke-miterlimit="10" x1="164.5" y1="330.122" x2="275.996" y2="330.122"/>
					</g>
					
						<rect x="314.157" y="311.45" fill="none" stroke="#BABCBE" stroke-width="3" stroke-linecap="round" stroke-linejoin="round" stroke-miterlimit="10" width="21.343" height="21.343"/>
				</g>
				<g>
					<g>
						
							<line fill="none" stroke="#BABCBE" stroke-width="3" stroke-linecap="round" stroke-linejoin="round" stroke-miterlimit="10" x1="164.5" y1="354.147" x2="294.008" y2="354.147"/>
						
							<line fill="none" stroke="#BABCBE" stroke-width="3" stroke-linecap="round" stroke-linejoin="round" stroke-miterlimit="10" x1="164.5" y1="362.147" x2="294.008" y2="362.147"/>
						
							<line fill="none" stroke="#BABCBE" stroke-width="3" stroke-linecap="round" stroke-linejoin="round" stroke-miterlimit="10" x1="164.5" y1="370.147" x2="275.996" y2="370.147"/>
					</g>
					
						<rect x="314.157" y="351.476" fill="none" stroke="#BABCBE" stroke-width="3" stroke-linecap="round" stroke-linejoin="round" stroke-miterlimit="10" width="21.343" height="21.343"/>
				</g>
			</g>
			
				<line fill="none" stroke="#6D6E70" stroke-width="8" stroke-linecap="round" stroke-linejoin="round" stroke-miterlimit="10" x1="208.68" y1="159.582" x2="291.32" y2="159.582"/>
		</g>
		<path fill="#EB1C24" d="M320.688,197.976l0.301,0.116c0.098,0.039,0.17,0.055,0.436,0.2c0.217,0.117,0.43,0.25,0.63,0.392
			c0.093,0.067,0.216,0.154,0.274,0.211l0.164,0.167c0.205,0.221,0.459,0.457,0.6,0.674c0.158,0.22,0.334,0.445,0.47,0.664
			c0.269,0.436,0.517,0.871,0.721,1.3c0.219,0.431,0.396,0.858,0.577,1.286c0.352,0.855,0.64,1.708,0.911,2.563l0.378,1.286
			c0.118,0.435,0.229,0.852,0.339,1.313l-2.506-0.563c0.844-0.865,1.68-1.677,2.536-2.493c0.853-0.813,1.715-1.615,2.59-2.401
			c1.748-1.576,3.53-3.111,5.377-4.569c0.455-0.371,0.921-0.729,1.392-1.083c0.472-0.352,0.928-0.72,1.411-1.057
			c0.952-0.689,1.914-1.364,2.905-1.997c0.483-0.331,0.991-0.628,1.497-0.927c0.507-0.297,1.001-0.611,1.53-0.869
			c0.524-0.264,1.032-0.555,1.566-0.794l1.611-0.691l-1.525,0.853c-0.503,0.291-0.977,0.632-1.464,0.945
			c-0.491,0.307-0.948,0.668-1.415,1.012c-0.466,0.345-0.932,0.687-1.374,1.063c-0.906,0.722-1.78,1.482-2.643,2.255
			c-0.438,0.378-0.85,0.789-1.274,1.18c-0.424,0.394-0.844,0.792-1.252,1.203c-1.657,1.615-3.245,3.303-4.793,5.021
			c-0.775,0.858-1.535,1.73-2.284,2.609c-0.745,0.876-1.493,1.773-2.19,2.657c-0.484,0.614-1.375,0.718-1.989,0.234
			c-0.209-0.166-0.359-0.378-0.447-0.61l-0.069-0.187l-0.429-1.146l-0.472-1.146c-0.329-0.754-0.672-1.5-1.052-2.201
			c-0.19-0.346-0.381-0.696-0.588-1.011c-0.2-0.33-0.414-0.619-0.625-0.895c-0.106-0.136-0.215-0.235-0.318-0.356
			c-0.105-0.138-0.199-0.166-0.289-0.256l-0.065-0.059c-0.02-0.016,0.006,0.021,0.011,0.026c0.021,0.023,0.057,0.037,0.094,0.035
			c0,0,0.089-0.001,0.009-0.019l-0.156-0.042l-0.312-0.084l-0.039-0.01c-1.067-0.288-1.699-1.387-1.411-2.455
			s1.388-1.699,2.455-1.411C320.556,197.93,320.624,197.952,320.688,197.976z"/>
		<path fill="#EB1C24" d="M320.688,238.001l0.301,0.116c0.098,0.039,0.17,0.055,0.436,0.2c0.217,0.117,0.43,0.25,0.63,0.393
			c0.093,0.067,0.216,0.154,0.274,0.211l0.164,0.167c0.205,0.221,0.459,0.457,0.6,0.674c0.158,0.22,0.334,0.444,0.47,0.663
			c0.269,0.436,0.517,0.871,0.721,1.3c0.219,0.431,0.396,0.858,0.577,1.287c0.352,0.854,0.64,1.708,0.911,2.563l0.378,1.286
			c0.118,0.435,0.229,0.852,0.339,1.314l-2.506-0.563c0.844-0.865,1.68-1.677,2.536-2.493c0.853-0.813,1.715-1.615,2.59-2.401
			c1.748-1.575,3.53-3.111,5.377-4.568c0.455-0.372,0.921-0.729,1.392-1.083c0.472-0.352,0.928-0.72,1.411-1.056
			c0.952-0.689,1.914-1.364,2.905-1.997c0.483-0.331,0.991-0.628,1.497-0.927c0.507-0.297,1.001-0.611,1.53-0.869
			c0.524-0.264,1.032-0.555,1.566-0.794l1.611-0.691l-1.525,0.852c-0.503,0.291-0.977,0.633-1.464,0.945
			c-0.491,0.306-0.948,0.668-1.415,1.012c-0.466,0.345-0.932,0.687-1.374,1.063c-0.906,0.722-1.78,1.482-2.643,2.255
			c-0.438,0.377-0.85,0.788-1.274,1.18c-0.424,0.394-0.844,0.792-1.252,1.203c-1.657,1.615-3.245,3.302-4.793,5.021
			c-0.775,0.858-1.535,1.729-2.284,2.609c-0.745,0.875-1.493,1.773-2.19,2.656c-0.484,0.614-1.375,0.719-1.989,0.234
			c-0.209-0.165-0.359-0.377-0.447-0.61l-0.069-0.188l-0.429-1.146l-0.472-1.146c-0.329-0.754-0.672-1.5-1.052-2.201
			c-0.19-0.346-0.381-0.696-0.588-1.012c-0.2-0.33-0.414-0.618-0.625-0.895c-0.106-0.136-0.215-0.235-0.318-0.356
			c-0.105-0.138-0.199-0.166-0.289-0.256l-0.065-0.059c-0.02-0.017,0.006,0.021,0.011,0.025c0.021,0.024,0.057,0.037,0.094,0.035
			c0,0,0.089,0,0.009-0.018l-0.156-0.042l-0.312-0.084l-0.039-0.011c-1.067-0.288-1.699-1.387-1.411-2.454
			c0.288-1.068,1.388-1.7,2.455-1.412C320.556,237.955,320.624,237.977,320.688,238.001z"/>
		<g opacity="0.25">
			<path fill="#231F20" d="M317.924,283.214c-1.396-0.061-1.542,1.484-1.542,1.484s-0.477,0.918,0.24,1.28l-0.488,2.014
				c-0.769,0.542-1.526,1.258-1.683,1.904c-3.625,2.318-15.443,13.786-15.443,13.786s-12.889-12.43-18.43-13.625
				c-2.195-1.053-4.656-1.965-6.838-2.745l-1.164-2.398c-0.15-0.116-0.312-0.221-0.473-0.325l0.058-3.881
				c3.329-2.027,5.294-9.846,3.382-11.859c-1.912-2.015-6.391-2.788-8.678-2.837c-1.34-0.028-6.941,0.544-4.2,3.297
				c-0.936,1.776-1.725,4.445-2.102,7.072c-0.82,0.563-1.435,1.153-1.07,1.501c0.224,0.214,0.53,0.389,0.867,0.523
				c-0.172,3.011,0.33,5.609,1.943,6.238l-0.333,0.611c-4.087,0.002-6.857,1.535-8.448,2.79c-0.032,0.025-0.105,0.083-0.225,0.178
				c-0.015,0.012-0.032,0.024-0.046,0.036c-0.541,0.429-1.754,1.397-3.219,2.598c0.028-0.628,1.006-2.148,0.996-2.718
				c-0.008-0.414-0.283-0.34-0.283-0.34c-0.149,0.967-1.617,1.803-2.082,1.92s-1.629,3.264-1.629,3.264
				c-0.009,0.135,0.005,0.245,0.016,0.359c-1.611,1.369-3.208,2.775-4.375,3.92c-3.5,3.433-8.5,9.777-6.625,12.095
				c1.47,1.816,9.791-2.36,13.322-4.253c0.229,8.219,2.35,15.73,3.106,20.101c0.14,0.816-0.13,1.982-0.415,2.9
				c-0.215,0.693,0.026,1.418,0.566,1.869l-0.244,1.101c0,0-3.507,7.255,0.473,13.777c2.624,26.037,1.031,35.934,1.031,35.934
				c-1.488,9.233-6.624,36.701-6.624,36.701l0.499,0.078l-0.499,5.491l8.455-0.02c0,0,0.841-1.528-5.299-3.117
				c0,0-0.195-0.017-0.572-0.634c-0.149-0.243-0.118-0.772-0.02-1.398l0.819,0.128l13.792-36.954l3.512-25.714l10.439,25.262
				c-1.492,9.232,0.476,37.74,0.476,37.74h0.428l-0.428,4.707l8.455-0.02c0,0,0.841-1.528-5.298-3.117c0,0-0.195-0.017-0.572-0.634
				c-0.11-0.18-0.117-0.522-0.076-0.937h0.44l6.673-38.382l-9.813-44.524l0.126-1.089c1.398-0.547,1.934-12.343,2.263-13.74
				c1.544-6.549,2.542-12.019,3.187-16.307c12.4,8.257,17.258,7.268,17.258,7.268c2.624-1.883,11.663-16.166,14.191-20.207
				c0.218-0.05,1.397-0.323,1.737-0.434c0.375-0.122,0.688-2.379,0.313-2.562c-0.375-0.184,0.401-0.977,0.169-1.221
				c-0.061-0.063-0.31,0.005-0.646,0.162l0.29-1.193c0.887-0.154,1.234-1.195,1.234-1.195l-0.024-0.055
				c0.427-1.006,1.337-0.854,1.337-0.854l0.104-0.313C320.215,283.702,319.319,283.275,317.924,283.214z"/>
			<g>
				<path fill="#231F20" d="M367.489,411.068v-3.739l-2.29,10.619C366.64,416.028,367.489,413.648,367.489,411.068z
					 M356.499,211.419l-8.319-6.39c0,0-1.021-1.04-1.71-1.28c-0.19-0.07-0.45-0.1-0.73-0.11l-0.09-0.38
					c0.71-0.36,0.24-1.26,0.24-1.26s-0.15-1.53-1.54-1.47c-1.4,0.06-2.3,0.48-2.3,0.48l0.109,0.31c0,0,0.91-0.15,1.33,0.85
					l-0.02,0.05c0,0,0.35,1.03,1.229,1.18l0.07,0.27c-0.38,0.03-0.68,0.08-0.68,0.08s-0.561,0.21,0,0.58c0,0-0.681,0.97,0,1.52
					c0.3,0.23,0.84,0.43,1.359,0.59l0.09,0.36c0,0,0.011,0.03,0.021,0.08c0.06,0.14,0.2,0.42,0.53,0.42
					c0.029,0,0.05-0.01,0.079-0.01c0.03,0,0.051,0.01,0.08,0.01c0.341,0,0.33-0.24,0.29-0.39c0-0.05-0.01-0.09-0.02-0.11
					l-0.021-0.08c0.21,0.05,0.341,0.08,0.341,0.08s5.14,6.24,9.659,10.35c2.431,2.22,4.67,3.82,5.841,3.51
					c1.119-0.3,3.06-2.47,5.149-5.24v-20.65c-3.729,6.73-7.729,19.16-7.729,19.16L356.499,211.419z M366.419,174.149
					c-0.399,1.93-0.42,4.68-0.05,7.27c-0.63,0.75-1.06,1.47-0.609,1.71c0.27,0.14,0.609,0.23,0.979,0.27
					c0.2,0.87,0.45,1.7,0.75,2.42v-15.13C365.77,171.529,364.119,172.859,366.419,174.149z M339.56,411.568l-2.37,11h4.5l2.37-11
					l1.77-8.229h21.66v-1.771h-21.27l4.949-22.979h16.32v-1.771h-15.93l4.939-22.93l0.011-0.05h10.979v-1.771h-10.59l4.96-22.979
					h5.63v-1.771h-5.25l4.96-22.989h0.29v-22.21l-10.99,50.939L339.56,411.568z"/>
			</g>
			<g>
				<path fill="#231F20" d="M330.069,414.358c-0.17-0.979-0.46-1.92-0.85-2.79c-1.37-3.17-4.011-5.42-6.66-5.42
					c-0.17,0-0.34,0.011-0.5,0.03c-0.17-0.02-0.34-0.03-0.5-0.03c-1.141,0-2.13,0.42-2.92,1.15l0.16-3.23h0.609v-1.449h-18v1.449
					h0.61l0.109,2.16c-1.63,1.811-3.079,3.931-2.489,5.3c0.01,0.011,0.01,0.03,0.02,0.04c0.36,0.801,1.32,1.23,2.811,1.311
					l0.51,9.689h14.87l0.229-4.55c1.46,2.69,3.84,4.55,6.24,4.55c0.17,0,0.34-0.02,0.5-0.04c0.17,0.021,0.34,0.04,0.5,0.04
					C328.709,422.568,330.829,418.889,330.069,414.358z M300.879,411.568c-0.14-0.1-0.239-0.22-0.3-0.35
					c-0.34-0.78,0.44-2.16,1.62-3.61l0.21,3.96l0.021,0.41C301.709,411.929,301.189,411.799,300.879,411.568z"/>
			</g>
			<path fill="#231F20" d="M143.5,306.539c-0.51,0.109-1.72,0.069-1.72,0.069s0.79,1.62-0.83,1.92
				c-1.63,0.311-2.78-0.399-2.78-0.399s-2.29,0.649-5.68,1.53v-4.101l5.68,0.28c0,0,4.37,0.06,5.33,0.43
				c0.02,0.01,0.04,0.01,0.05,0.021C143.819,306.419,143.739,306.499,143.5,306.539z"/>
		</g>
	</g>
	<g>
		<g>
			<polygon fill="#58595B" points="338.017,423.056 333.517,423.056 373.542,230.622 378.042,230.622 			"/>
			<g>
				<path fill="#58595B" d="M399.572,249.059h-26.417c-0.507,0-0.917-0.411-0.917-0.917l0,0c0-0.506,0.41-0.917,0.917-0.917h26.417
					V249.059z"/>
				<path fill="#58595B" d="M394.204,274.734h-26.416c-0.507,0-0.917-0.411-0.917-0.917l0,0c0-0.506,0.41-0.917,0.917-0.917h26.416
					V274.734z"/>
				<path fill="#58595B" d="M388.837,300.409H362.42c-0.506,0-0.916-0.411-0.916-0.917l0,0c0-0.506,0.41-0.917,0.916-0.917h26.417
					V300.409z"/>
				<path fill="#58595B" d="M383.47,326.084h-26.417c-0.506,0-0.916-0.411-0.916-0.917l0,0c0-0.506,0.41-0.917,0.916-0.917h26.417
					V326.084z"/>
				<path fill="#58595B" d="M378.103,351.759h-26.417c-0.506,0-0.917-0.41-0.917-0.917l0,0c0-0.506,0.411-0.916,0.917-0.916h26.417
					V351.759z"/>
				<path fill="#58595B" d="M372.734,377.434h-26.416c-0.507,0-0.917-0.41-0.917-0.917l0,0c0-0.506,0.41-0.916,0.917-0.916h26.416
					V377.434z"/>
				<path fill="#58595B" d="M367.367,403.108h-26.416c-0.507,0-0.917-0.41-0.917-0.917l0,0c0-0.506,0.41-0.916,0.917-0.916h26.416
					V403.108z"/>
			</g>
			<polygon fill="#58595B" points="365.034,423.056 360.534,423.056 400.56,230.622 405.06,230.622 			"/>
		</g>
		<g>
			<polygon fill="#808083" points="443.057,423.056 447.557,423.056 407.531,230.622 403.031,230.622 			"/>
			<g>
				<path fill="#58595B" d="M381.501,249.059h26.417c0.507,0,0.917-0.411,0.917-0.917l0,0c0-0.506-0.41-0.917-0.917-0.917h-26.417
					V249.059z"/>
				<path fill="#58595B" d="M386.869,274.734h26.416c0.507,0,0.917-0.411,0.917-0.917l0,0c0-0.506-0.41-0.917-0.917-0.917h-26.416
					V274.734z"/>
				<path fill="#58595B" d="M392.236,300.409h26.417c0.506,0,0.916-0.411,0.916-0.917l0,0c0-0.506-0.41-0.917-0.916-0.917h-26.417
					V300.409z"/>
				<path fill="#58595B" d="M397.604,326.084h26.417c0.506,0,0.916-0.411,0.916-0.917l0,0c0-0.506-0.41-0.917-0.916-0.917h-26.417
					V326.084z"/>
				<path fill="#58595B" d="M402.971,351.759h26.417c0.506,0,0.917-0.41,0.917-0.917l0,0c0-0.506-0.411-0.916-0.917-0.916h-26.417
					V351.759z"/>
				<path fill="#58595B" d="M408.339,377.434h26.416c0.507,0,0.917-0.41,0.917-0.917l0,0c0-0.506-0.41-0.916-0.917-0.916h-26.416
					V377.434z"/>
				<path fill="#58595B" d="M413.706,403.108h26.416c0.507,0,0.917-0.41,0.917-0.917l0,0c0-0.506-0.41-0.916-0.917-0.916h-26.416
					V403.108z"/>
			</g>
			<polygon fill="#A5A7AA" points="416.039,423.056 420.539,423.056 380.514,230.622 376.014,230.622 			"/>
			<path fill="#58595B" d="M370.019,231.54h40.292c0.816,0,1.479-0.662,1.479-1.479l0,0c0-0.817-0.662-1.479-1.479-1.479h-40.292
				c-0.817,0-1.479,0.662-1.479,1.479l0,0C368.539,230.877,369.201,231.54,370.019,231.54z"/>
		</g>
	</g>
	<g>
		<g>
			<path fill="#A01529" d="M338.385,193.232l0.104,0.322c0,0,0.911-0.155,1.338,0.875l1.004-0.176l-0.247-0.5l-0.729-0.624
				L338.385,193.232z"/>
			<path fill="#603813" d="M342.42,199.756c-0.33,0-0.47-0.29-0.53-0.44c-0.01-0.05-0.02-0.08-0.02-0.08l-0.88-3.72h0.819
				l0.881,3.72c0.01,0.02,0.02,0.06,0.02,0.11C342.75,199.506,342.76,199.756,342.42,199.756z"/>
			<path fill="#895D3B" d="M342.577,199.756c-0.33,0-0.471-0.29-0.53-0.44c-0.01-0.05-0.02-0.08-0.02-0.08l-0.881-3.72h0.82
				l0.88,3.72c0.01,0.02,0.021,0.06,0.021,0.11C342.907,199.506,342.917,199.756,342.577,199.756z"/>
			<path fill="#BD1E2D" d="M339.906,194.253c0,0-0.25-0.604-0.75-0.833c-0.5-0.229-0.771-0.188-0.771-0.188s0.896-0.438,2.292-0.5
				s1.542,1.521,1.542,1.521H339.906z"/>
			<path fill="#6D6E70" d="M339.906,194.253l-0.105,0.232c0,0,0.501,1.598,1.878,1.193l0.449-0.7L339.906,194.253z"/>
			<path fill="#919396" d="M339.906,194.253h2.313c0,0,0.573,1.104-0.417,1.396C340.813,195.941,340.114,195.003,339.906,194.253z"
				/>
		</g>
		<path fill="#F2A779" d="M344.51,197.399c0,0-1.021-1.083-1.709-1.333s-2.375,0-2.375,0s-0.563,0.222,0,0.611
			c0,0-0.688,0.999,0,1.569s2.75,0.987,2.75,0.987L344.51,197.399z"/>
		<path fill="#E2BC66" d="M374.669,183.919l7.854,26.883l-6.777,17.9l2.434,0.378c0,0,7.442-12.396,9.906-16.873
			c2.463-4.476-1.539-20.578-1.539-20.578L374.669,183.919z"/>
		<g>
			<g>
				<path fill="#DB8F65" d="M364.763,170.779c0,0-3.72,3.331-2.676,3.901c1.044,0.57,3.044,0.306,3.487-0.404
					C366.088,173.455,364.763,170.779,364.763,170.779z"/>
				<path fill="#F2A779" d="M364.263,162.706c0,0,8.611-2.789,10.721-0.281c2.108,2.507,2.245,17.433-7.952,18.174
					C362.096,180.957,361.074,163.531,364.263,162.706z"/>
				<path fill="#EF5A28" d="M365.879,160.973c2.216-0.573,6.74-1.027,9.142,0.44c2.4,1.467,2.685,9.709,0.045,12.614
					c0,0-2.094-0.96-4.589,1.616c0,0-7.083-1.209-6.558-9.497c-0.607-0.377-1.118-0.751-1.118-0.751
					C359.288,163.417,364.575,161.311,365.879,160.973z"/>
				<path fill="#F2A779" d="M364.834,171.436c0,0-0.727-2.341,0.556-2.271c1.283,0.071,1.476,3.549,0.889,4.589
					c-0.588,1.04-1.372,0.443-1.305-0.891L364.834,171.436z"/>
			</g>
			<path fill="#DB8F65" d="M370.76,176.577c-0.442,2.896,1.779,3.78,1.779,3.78s13.352-3.385,9.133-4.291
				c-4.384-0.942-7.538-2.21-7.538-2.21S371.177,173.855,370.76,176.577z"/>
		</g>
		<path fill="#603C21" d="M411.689,299.497l8.454,0.021l-0.742-8.38h-2.356c0.082,1.263,0.901,3.869,0.515,4.516
			c-0.377,0.633-0.572,0.65-0.572,0.65C410.849,297.932,411.689,299.497,411.689,299.497z"/>
		<path fill="#754C28" d="M395.097,299.497l8.454,0.021l-0.742-8.38h-2.356c0.082,1.263,0.901,3.869,0.515,4.516
			c-0.377,0.633-0.572,0.65-0.572,0.65C394.256,297.932,395.097,299.497,395.097,299.497z"/>
		<path fill="#F4D076" d="M381.746,175.378l-2.056-1.282c0,0-7.198,1.253-8.151,6.963L381.746,175.378z"/>
		<path fill="#FFE082" d="M417.595,205.827c0,0,1.293,3.714-7.105,6.369c-11.818,3.737-17.198,2.095-18.282,0.788
			c-13.646-16.453-29.024-24.336-29.024-24.336c1-4.729,7.606-11.064,15.873-12.976c8.292-1.917,14.058,1.371,14.058,1.371
			C409.634,184.428,417.592,205.815,417.595,205.827z"/>
		<path fill="#F4D076" d="M366.59,182.838c0,0,6.49,6.212,6.192,11.441c0,0-10.769,18.4-14.106,19.333
			c-3.337,0.934-15.5-14.38-15.5-14.38s0.104-1.065,1.334-1.833l11.587,9.234C356.097,206.633,362.436,186.191,366.59,182.838z"/>
		<g>
			<path fill="#404041" d="M420.121,294.649h-2.87l-11.05-35.724l-1.094-27.25l-0.265-6.6l7.897-5.205
				c1.801-6.656-0.83-12.808-1.101-13.428c-0.012-0.019-0.018-0.031-0.024-0.037c0-0.006-0.006-0.012-0.006-0.012
				c1.874-0.276,3.872-0.479,5.985-0.565c0,0,4.425,6.926,1.328,14.061c0.793,26.795-2.293,37.415-2.293,37.415
				C419.31,266.497,420.121,294.649,420.121,294.649z"/>
			<path fill="#4C4C4C" d="M411.611,206.396c-12.505,1.856-19.522,7.216-19.522,7.216l-3.88,47.263l12.448,33.775h2.868
				c0,0-2.533-25.216-5.218-34.409l7.813-30.828c1.998-5.918,6.708-7.048,7.528-10.501
				C415.263,212.129,411.618,206.412,411.611,206.396z"/>
		</g>
		<path fill="#2D2D2D" d="M391.822,212.522c0,0,14.351-8.944,25.33-7.944l0.442,1.25c0,0-14.751,0.568-25.506,7.784L391.822,212.522
			z"/>
		<polygon fill="#4C4C4C" points="410.248,205.031 410.868,206.633 412.309,206.396 411.755,204.777 		"/>
		<polygon fill="#4C4C4C" points="401.047,207.892 401.437,209.056 399.914,209.616 399.617,208.501 		"/>
		<path fill="#DB8F65" d="M378.179,229.081c0,0,0.372,0.756-0.315,1.027s-5.071,0-5.071,0h-0.866c0,0,0.231-0.667,0.866-0.729
			c0.634-0.063,3.083-1.02,3.083-1.02S377.806,228.533,378.179,229.081z"/>
	</g>
	<g>
		<g>
			<g>
				<path fill="#BABCBE" d="M294.734,412.139c-0.004,0-0.009,0-0.014,0c-1.68-0.046-2.718-0.562-3.087-1.533
					c-1.135-2.992,5.313-9.141,6.051-9.832c0.202-0.188,0.519-0.179,0.707,0.023s0.178,0.519-0.023,0.707
					c-2.602,2.435-6.477,6.962-5.799,8.746c0.211,0.557,0.943,0.855,2.179,0.889c0.275,0.008,0.493,0.237,0.486,0.514
					C295.227,411.924,295.005,412.139,294.734,412.139z"/>
			</g>
			<polygon fill="#BD1E2D" points="310.84,401.275 310.84,401.306 309.84,423.056 294.97,423.056 293.97,401.275 			"/>
			<polygon fill="#AA182D" points="310.84,401.306 310.529,408.056 310.149,416.306 309.84,423.056 303.459,423.056 
				303.859,401.376 			"/>
			<rect x="293.4" y="400.556" fill="#A5A7AA" width="18" height="1.636"/>
			<path fill="none" stroke="#CFD1D2" stroke-linecap="round" stroke-linejoin="round" stroke-miterlimit="10" d="M307.776,401.139
				c0,0-2.537,10.5-13.811,10.5"/>
			<polygon fill="#BABCBE" points="310.529,408.056 310.149,416.306 305.09,416.306 305.239,408.056 			"/>
		</g>
		<g>
			<path fill="#A5A7AA" d="M321.059,413.793c0.765,5.115-1.358,9.261-4.741,9.261s-6.744-4.146-7.509-9.261
				c-0.764-5.114,1.359-9.261,4.741-9.261C316.933,404.532,320.295,408.679,321.059,413.793z"/>
			<path fill="#BABCBE" d="M322.06,413.793c0.765,5.115-1.358,9.261-4.741,9.261s-6.744-4.146-7.509-9.261
				c-0.765-5.114,1.358-9.261,4.741-9.261S321.295,408.679,322.06,413.793z"/>
			<path fill="#A5A7AA" d="M321.633,413.793c0.711,4.759-1.264,8.616-4.411,8.616c-3.146,0-6.274-3.857-6.985-8.616
				c-0.711-4.758,1.264-8.615,4.411-8.615C317.794,405.178,320.922,409.035,321.633,413.793z"/>
		</g>
	</g>
	<g>
		<g>
			<path fill="#991326" d="M306.035,280.273l-0.103,0.321c0,0-0.911-0.154-1.338,0.876l-1.004-0.176l0.247-0.5l0.729-0.623
				L306.035,280.273z"/>
			<path fill="#603813" d="M302.001,286.797c0.33,0,0.47-0.29,0.53-0.439c0.01-0.051,0.02-0.081,0.02-0.081l0.88-3.72h-0.82
				l-0.88,3.72c-0.01,0.021-0.02,0.061-0.02,0.11C301.671,286.547,301.661,286.797,302.001,286.797z"/>
			<path fill="#895D3B" d="M301.844,286.797c0.33,0,0.471-0.29,0.53-0.439c0.01-0.051,0.02-0.081,0.02-0.081l0.881-3.72h-0.82
				l-0.88,3.72c-0.01,0.021-0.021,0.061-0.021,0.11C301.514,286.547,301.504,286.797,301.844,286.797z"/>
			<path fill="#BD1E2D" d="M304.515,281.295c0,0,0.25-0.604,0.75-0.834c0.5-0.229,0.771-0.188,0.771-0.188s-0.896-0.438-2.291-0.5
				c-1.396-0.063-1.542,1.521-1.542,1.521H304.515z"/>
			<path fill="#6D6E70" d="M304.515,281.295l0.105,0.231c0,0-0.501,1.599-1.878,1.193l-0.449-0.7L304.515,281.295z"/>
			<path fill="#919396" d="M304.515,281.295h-2.313c0,0-0.573,1.104,0.417,1.396C303.608,282.982,304.307,282.045,304.515,281.295z"
				/>
		</g>
		<path fill="#F2A779" d="M234.115,291.521c0,0-1.369-0.132-1.259-1.738c0,0,1.164-3.224,1.629-3.345
			c0.464-0.12,1.933-0.976,2.082-1.966c0,0,0.275-0.076,0.283,0.348c0.011,0.622-1.115,2.364-1.001,2.912
			c0.114,0.547-0.289,1.558-0.289,1.558l0.844,0.344c0,0,1.413-0.693,1.789,0.13c0,0-1.159,0.211-2.274,1.247
			C235.414,291.478,234.115,291.521,234.115,291.521z"/>
		<path fill="#73CBEA" d="M239.379,284.693c0,0-7.382,5.955-10.882,9.473c-3.5,3.519-8.5,10.019-6.625,12.394
			s14.908-5.25,14.908-5.25L239.379,284.693z"/>
		<g>
			<path fill="#DB8F65" d="M248.947,271.282c0,0-4.484,2.195-3.634,3.027c0.85,0.833,2.846,1.122,3.466,0.559
				C249.497,274.218,248.947,271.282,248.947,271.282z"/>
			<path fill="#F2A779" d="M250.66,263.377c0,0,9.044-0.345,10.393,2.641c1.349,2.986-2.573,17.388-12.588,15.331
				C243.617,280.354,247.366,263.306,250.66,263.377z"/>
			<path fill="#754C28" d="M252.686,262.148c2.287,0.05,6.766,0.842,8.678,2.906c1.912,2.063-0.053,10.073-3.382,12.151
				c0,0-1.755-1.492-4.854,0.309c0,0-6.489-3.087-3.733-10.921c-0.481-0.527-0.872-1.026-0.872-1.026
				C245.679,262.71,251.339,262.119,252.686,262.148z"/>
			<path fill="#F2A779" d="M248.838,271.934c0,0-0.064-2.45,1.151-2.034s0.457,3.816-0.392,4.658
				c-0.848,0.841-1.44,0.054-1.013-1.212L248.838,271.934z"/>
		</g>
		<path fill="#DB8F65" d="M257.981,277.206l-0.142,9.813c0,0-10.025-0.677-8.214-4.594c0.198-0.428,0.379-0.905,0.542-1.396
			c0.803-2.412,3.094-4.009,5.634-3.908L257.981,277.206z"/>
		<path fill="#81D4FA" d="M237.885,325.768c-0.265,0.877,0.156,1.81,0.987,2.195c4.411,2.044,17.542,7.497,25.75,4.208
			c1.398-0.56,1.934-12.646,2.263-14.078c4.147-18.015,4.354-28.075,4.354-28.075c-2.427-2.546-7.556-4.534-11.68-6.044
			c-4.404-1.625-8.354-2.11-11.769-2.109c-6.912,0.003-10.088,4.502-10.088,4.502c-5.426,13.531-0.625,29.189,0.597,36.43
			C238.44,323.633,238.17,324.828,237.885,325.768z"/>
		<path fill="#73CBEA" d="M247.792,281.864l1.454-2.737c0,0,5.91-0.175,9.151,2.389l1.164,2.458
			C259.561,283.974,249.955,283.201,247.792,281.864z"/>
		<path fill="#404041" d="M241.542,423.036l-8.455,0.02l0.743-8.38h2.355c-0.081,1.264-0.901,3.87-0.514,4.517
			c0.377,0.633,0.572,0.649,0.572,0.649C242.383,421.47,241.542,423.036,241.542,423.036z"/>
		<path fill="#404041" d="M273.144,423.036l-8.454,0.02l0.742-8.38h2.356c-0.082,1.264-0.901,3.87-0.515,4.517
			c0.377,0.633,0.572,0.649,0.572,0.649C273.984,421.47,273.144,423.036,273.144,423.036z"/>
		<g>
			<path fill="#603C21" d="M233.087,417.349l3.384,0.542l13.791-37.863l3.621-27.167l-0.577-6.58l-8.496-4.158
				c-2.633-6.372-0.807-12.809-0.618-13.459c0.01-0.02,0.015-0.032,0.02-0.039c0-0.007,0.005-0.014,0.005-0.014
				c-1.895-0.035-3.901,0.018-6.009,0.201c0,0-3.507,7.433,0.473,14.115c2.624,26.678,1.031,36.818,1.031,36.818
				C238.223,389.205,233.087,417.349,233.087,417.349z"/>
			<path fill="#754C28" d="M244.215,328.614c12.64,0.249,20.283,4.673,20.283,4.673l9.813,45.62l-6.673,39.326h-2.948
				c0,0-1.969-29.21-0.477-38.669l-11.624-28.82c-2.734-5.616-7.549-6.137-8.803-9.457
				C241.323,334.765,244.21,328.63,244.215,328.614z"/>
		</g>
		<path fill="#2D2D2D" d="M264.623,332.171c0,0-15.372-7.045-26.136-4.655l-0.28,1.296c0,0,14.704-1.313,26.291,4.476
			L264.623,332.171z"/>
		<polygon fill="#754C28" points="245.394,327.086 244.982,328.754 243.523,328.703 243.867,327.025 		"/>
		<polygon fill="#754C28" points="254.884,328.752 254.646,329.957 256.227,330.318 256.38,329.175 		"/>
		<path fill="#73CBEA" d="M265.51,286.687c4.89-0.201,19.318,14.059,19.318,14.059s11.818-11.75,15.443-14.125l1.918,0.41
			c0,0-11.799,19.551-14.858,21.801c0,0-5.639,1.187-20.292-9.596c0,0-1.265-2.098-2.14-6.049S265.51,286.687,265.51,286.687z"/>
		<path fill="#DB8F65" d="M300.271,286.62c0,0,1.359,0.349,1.205,1.519c0,0,1.407-0.331,1.782-0.456s0.688-2.438,0.313-2.625
			s0.401-1,0.17-1.25C303.509,283.558,300.597,285.245,300.271,286.62z"/>
	</g>
</g>
<g id="DESIGNED_BY_FREEPIK">
</g>
</svg>
